<svg id="visual" viewBox="0 0 900 600" width="900" height="600" xmlns="http://www.w3.org/2000/svg" xmlns:xlink="http://www.w3.org/1999/xlink" version="1.1"><rect width="900" height="600" fill="#001829"></rect><g><g transform="translate(61 497)"><path d="M0 -13.1L12.5 -4.1L7.7 10.6L-7.7 10.6L-12.5 -4.1Z" fill="none" stroke="#297EA6" stroke-width="2"></path></g><g transform="translate(791 324)"><path d="M0 -11L10.5 -3.4L6.5 8.9L-6.5 8.9L-10.5 -3.4Z" fill="none" stroke="#297EA6" stroke-width="2"></path></g><g transform="translate(130 491)"><path d="M0 -7L6.7 -2.2L4.1 5.7L-4.1 5.7L-6.7 -2.2Z" fill="none" stroke="#297EA6" stroke-width="2"></path></g><g transform="translate(681 297)"><path d="M0 -6L5.7 -1.9L3.5 4.9L-3.5 4.9L-5.7 -1.9Z" stroke="#297EA6" fill="none" stroke-width="2"></path></g><g transform="translate(788 386)"><path d="M0 -10L9.5 -3.1L5.9 8.1L-5.9 8.1L-9.5 -3.1Z" stroke="#297EA6" fill="none" stroke-width="2"></path></g><g transform="translate(887 512)"><path d="M0 -9L8.6 -2.8L5.3 7.3L-5.3 7.3L-8.6 -2.8Z" stroke="#297EA6" fill="none" stroke-width="2"></path></g><g transform="translate(96 49)"><path d="M0 -11L10.5 -3.4L6.5 8.9L-6.5 8.9L-10.5 -3.4Z" stroke="#297EA6" fill="none" stroke-width="2"></path></g><g transform="translate(355 62)"><path d="M0 -10L9.5 -3.1L5.9 8.1L-5.9 8.1L-9.5 -3.1Z" stroke="#297EA6" fill="none" stroke-width="2"></path></g><g transform="translate(108 137)"><path d="M0 -6L5.7 -1.9L3.5 4.9L-3.5 4.9L-5.7 -1.9Z" stroke="#297EA6" fill="none" stroke-width="2"></path></g><g transform="translate(766 447)"><path d="M0 -8L7.6 -2.5L4.7 6.5L-4.7 6.5L-7.6 -2.5Z" stroke="#297EA6" fill="none" stroke-width="2"></path></g><g transform="translate(624 593)"><path d="M0 -7L6.7 -2.2L4.1 5.7L-4.1 5.7L-6.7 -2.2Z" stroke="#297EA6" fill="none" stroke-width="2"></path></g><g transform="translate(446 74)"><path d="M0 -9L8.6 -2.8L5.3 7.3L-5.3 7.3L-8.6 -2.8Z" stroke="#297EA6" fill="none" stroke-width="2"></path></g><g transform="translate(251 462)"><path d="M0 -7L6.7 -2.2L4.1 5.7L-4.1 5.7L-6.7 -2.2Z" stroke="#297EA6" fill="none" stroke-width="2"></path></g><g transform="translate(344 497)"><path d="M0 -10L9.5 -3.1L5.9 8.1L-5.9 8.1L-9.5 -3.1Z" stroke="#297EA6" fill="none" stroke-width="2"></path></g><g transform="translate(119 177)"><path d="M0 -10L9.5 -3.1L5.9 8.1L-5.9 8.1L-9.5 -3.1Z" stroke="#297EA6" fill="none" stroke-width="2"></path></g><g transform="translate(403 176)"><path d="M0 -12L11.4 -3.7L7.1 9.7L-7.1 9.7L-11.4 -3.7Z" stroke="#297EA6" fill="none" stroke-width="2"></path></g><g transform="translate(422 143)"><path d="M0 -9L8.6 -2.8L5.3 7.3L-5.3 7.3L-8.6 -2.8Z" stroke="#297EA6" fill="none" stroke-width="2"></path></g><g transform="translate(155 259)"><path d="M0 -12L11.4 -3.7L7.1 9.7L-7.1 9.7L-11.4 -3.7Z" stroke="#297EA6" fill="none" stroke-width="2"></path></g><g transform="translate(475 50)"><path d="M0 -7L6.7 -2.2L4.1 5.7L-4.1 5.7L-6.7 -2.2Z" stroke="#297EA6" fill="none" stroke-width="2"></path></g><g transform="translate(360 107)"><path d="M0 -11L10.5 -3.4L6.5 8.9L-6.5 8.9L-10.5 -3.4Z" stroke="#297EA6" fill="none" stroke-width="2"></path></g><g transform="translate(623 472)"><path d="M0 -8L7.6 -2.5L4.7 6.5L-4.7 6.5L-7.6 -2.5Z" stroke="#297EA6" fill="none" stroke-width="2"></path></g><g transform="translate(11 411)"><path d="M0 -7L6.7 -2.2L4.1 5.7L-4.1 5.7L-6.7 -2.2Z" stroke="#297EA6" fill="none" stroke-width="2"></path></g><g transform="translate(26 366)"><path d="M0 -6L5.7 -1.9L3.5 4.9L-3.5 4.9L-5.7 -1.9Z" stroke="#297EA6" fill="none" stroke-width="2"></path></g><g transform="translate(464 584)"><path d="M0 -8L7.6 -2.5L4.7 6.5L-4.7 6.5L-7.6 -2.5Z" stroke="#297EA6" fill="none" stroke-width="2"></path></g><g transform="translate(607 348)"><path d="M0 -6L5.7 -1.9L3.5 4.9L-3.5 4.9L-5.7 -1.9Z" stroke="#297EA6" fill="none" stroke-width="2"></path></g><g transform="translate(793 43)"><path d="M0 -10L9.5 -3.1L5.9 8.1L-5.9 8.1L-9.5 -3.1Z" stroke="#297EA6" fill="none" stroke-width="2"></path></g><g transform="translate(470 104)"><path d="M0 -8L7.6 -2.5L4.7 6.5L-4.7 6.5L-7.6 -2.5Z" stroke="#297EA6" fill="none" stroke-width="2"></path></g><g transform="translate(454 12)"><path d="M0 -7L6.7 -2.2L4.1 5.7L-4.1 5.7L-6.7 -2.2Z" stroke="#297EA6" fill="none" stroke-width="2"></path></g><g transform="translate(303 153)"><path d="M0 -9L8.6 -2.8L5.3 7.3L-5.3 7.3L-8.6 -2.8Z" stroke="#297EA6" fill="none" stroke-width="2"></path></g><g transform="translate(690 376)"><path d="M0 -6L5.7 -1.9L3.5 4.9L-3.5 4.9L-5.7 -1.9Z" stroke="#297EA6" fill="none" stroke-width="2"></path></g><g transform="translate(46 206)"><path d="M0 -11L10.5 -3.4L6.5 8.9L-6.5 8.9L-10.5 -3.4Z" stroke="#297EA6" fill="none" stroke-width="2"></path></g><g transform="translate(832 248)"><path d="M0 -6L5.7 -1.9L3.5 4.9L-3.5 4.9L-5.7 -1.9Z" stroke="#297EA6" fill="none" stroke-width="2"></path></g><g transform="translate(434 252)"><path d="M0 -11L10.5 -3.4L6.5 8.9L-6.5 8.9L-10.5 -3.4Z" stroke="#297EA6" fill="none" stroke-width="2"></path></g><g transform="translate(890 152)"><path d="M0 -8L7.6 -2.5L4.7 6.5L-4.7 6.5L-7.6 -2.5Z" stroke="#297EA6" fill="none" stroke-width="2"></path></g><g transform="translate(93 317)"><path d="M0 -7L6.7 -2.2L4.1 5.7L-4.1 5.7L-6.7 -2.2Z" stroke="#297EA6" fill="none" stroke-width="2"></path></g><g transform="translate(393 501)"><path d="M0 -12L11.4 -3.7L7.1 9.7L-7.1 9.7L-11.4 -3.7Z" stroke="#297EA6" fill="none" stroke-width="2"></path></g><g transform="translate(401 230)"><path d="M0 -9L8.6 -2.8L5.3 7.3L-5.3 7.3L-8.6 -2.8Z" stroke="#297EA6" fill="none" stroke-width="2"></path></g><g transform="translate(414 563)"><path d="M0 -6L5.7 -1.9L3.5 4.9L-3.5 4.9L-5.7 -1.9Z" stroke="#297EA6" fill="none" stroke-width="2"></path></g><g transform="translate(274 407)"><path d="M0 -11L10.5 -3.4L6.5 8.9L-6.5 8.9L-10.5 -3.4Z" stroke="#297EA6" fill="none" stroke-width="2"></path></g><g transform="translate(577 37)"><path d="M0 -8L7.6 -2.5L4.7 6.5L-4.7 6.5L-7.6 -2.5Z" stroke="#297EA6" fill="none" stroke-width="2"></path></g><g transform="translate(733 151)"><path d="M0 -9L8.6 -2.8L5.3 7.3L-5.3 7.3L-8.6 -2.8Z" stroke="#297EA6" fill="none" stroke-width="2"></path></g><g transform="translate(358 420)"><path d="M0 -8L7.6 -2.5L4.7 6.5L-4.7 6.5L-7.6 -2.5Z" stroke="#297EA6" fill="none" stroke-width="2"></path></g><g transform="translate(9 552)"><path d="M0 -10L9.5 -3.1L5.9 8.1L-5.9 8.1L-9.5 -3.1Z" stroke="#297EA6" fill="none" stroke-width="2"></path></g><g transform="translate(238 189)"><path d="M0 -8L7.6 -2.5L4.7 6.5L-4.7 6.5L-7.6 -2.5Z" stroke="#297EA6" fill="none" stroke-width="2"></path></g><g transform="translate(580 138)"><path d="M0 -9L8.6 -2.8L5.3 7.3L-5.3 7.3L-8.6 -2.8Z" stroke="#297EA6" fill="none" stroke-width="2"></path></g><g transform="translate(45 251)"><path d="M0 -12L11.4 -3.7L7.1 9.7L-7.1 9.7L-11.4 -3.7Z" stroke="#297EA6" fill="none" stroke-width="2"></path></g><g transform="translate(434 113)"><path d="M0 -12L11.4 -3.7L7.1 9.7L-7.1 9.7L-11.4 -3.7Z" stroke="#297EA6" fill="none" stroke-width="2"></path></g><g transform="translate(222 543)"><path d="M0 -7L6.7 -2.2L4.1 5.7L-4.1 5.7L-6.7 -2.2Z" stroke="#297EA6" fill="none" stroke-width="2"></path></g><g transform="translate(549 427)"><path d="M0 -11L10.5 -3.4L6.5 8.9L-6.5 8.9L-10.5 -3.4Z" stroke="#297EA6" fill="none" stroke-width="2"></path></g><g transform="translate(424 320)"><path d="M0 -11L10.5 -3.4L6.5 8.9L-6.5 8.9L-10.5 -3.4Z" stroke="#297EA6" fill="none" stroke-width="2"></path></g><g transform="translate(175 67)"><path d="M0 -9L8.6 -2.8L5.3 7.3L-5.3 7.3L-8.6 -2.8Z" stroke="#297EA6" fill="none" stroke-width="2"></path></g><g transform="translate(837 396)"><path d="M0 -8L7.6 -2.5L4.7 6.5L-4.7 6.5L-7.6 -2.5Z" stroke="#297EA6" fill="none" stroke-width="2"></path></g><g transform="translate(892 368)"><path d="M0 -10L9.5 -3.1L5.9 8.1L-5.9 8.1L-9.5 -3.1Z" stroke="#297EA6" fill="none" stroke-width="2"></path></g><g transform="translate(634 105)"><path d="M0 -10L9.5 -3.1L5.9 8.1L-5.9 8.1L-9.5 -3.1Z" stroke="#297EA6" fill="none" stroke-width="2"></path></g><g transform="translate(694 518)"><path d="M0 -6L5.7 -1.9L3.5 4.9L-3.5 4.9L-5.7 -1.9Z" stroke="#297EA6" fill="none" stroke-width="2"></path></g><g transform="translate(579 437)"><path d="M0 -9L8.6 -2.8L5.3 7.3L-5.3 7.3L-8.6 -2.8Z" stroke="#297EA6" fill="none" stroke-width="2"></path></g><g transform="translate(650 406)"><path d="M0 -7L6.7 -2.2L4.1 5.7L-4.1 5.7L-6.7 -2.2Z" stroke="#297EA6" fill="none" stroke-width="2"></path></g><g transform="translate(345 582)"><path d="M0 -12L11.4 -3.7L7.1 9.7L-7.1 9.7L-11.4 -3.7Z" stroke="#297EA6" fill="none" stroke-width="2"></path></g><g transform="translate(350 163)"><path d="M0 -12L11.4 -3.7L7.1 9.7L-7.1 9.7L-11.4 -3.7Z" stroke="#297EA6" fill="none" stroke-width="2"></path></g><g transform="translate(448 279)"><path d="M0 -7L6.7 -2.2L4.1 5.7L-4.1 5.7L-6.7 -2.2Z" stroke="#297EA6" fill="none" stroke-width="2"></path></g><g transform="translate(644 281)"><path d="M0 -7L6.7 -2.2L4.1 5.7L-4.1 5.7L-6.7 -2.2Z" stroke="#297EA6" fill="none" stroke-width="2"></path></g><g transform="translate(660 18)"><path d="M0 -10L9.5 -3.1L5.9 8.1L-5.9 8.1L-9.5 -3.1Z" stroke="#297EA6" fill="none" stroke-width="2"></path></g><g transform="translate(213 345)"><path d="M0 -12L11.4 -3.7L7.1 9.7L-7.1 9.7L-11.4 -3.7Z" stroke="#297EA6" fill="none" stroke-width="2"></path></g><g transform="translate(737 12)"><path d="M0 -10L9.5 -3.1L5.9 8.1L-5.9 8.1L-9.5 -3.1Z" stroke="#297EA6" fill="none" stroke-width="2"></path></g><g transform="translate(569 532)"><path d="M0 -6L5.7 -1.9L3.5 4.9L-3.5 4.9L-5.7 -1.9Z" stroke="#297EA6" fill="none" stroke-width="2"></path></g><g transform="translate(637 154)"><path d="M0 -8L7.6 -2.5L4.7 6.5L-4.7 6.5L-7.6 -2.5Z" stroke="#297EA6" fill="none" stroke-width="2"></path></g><g transform="translate(353 522)"><path d="M0 -12L11.4 -3.7L7.1 9.7L-7.1 9.7L-11.4 -3.7Z" stroke="#297EA6" fill="none" stroke-width="2"></path></g><g transform="translate(819 315)"><path d="M0 -10L9.5 -3.1L5.9 8.1L-5.9 8.1L-9.5 -3.1Z" stroke="#297EA6" fill="none" stroke-width="2"></path></g><g transform="translate(135 425)"><path d="M0 -10L9.5 -3.1L5.9 8.1L-5.9 8.1L-9.5 -3.1Z" stroke="#297EA6" fill="none" stroke-width="2"></path></g><g transform="translate(52 104)"><path d="M0 -10L9.5 -3.1L5.9 8.1L-5.9 8.1L-9.5 -3.1Z" stroke="#297EA6" fill="none" stroke-width="2"></path></g><g transform="translate(209 215)"><path d="M0 -7L6.7 -2.2L4.1 5.7L-4.1 5.7L-6.7 -2.2Z" stroke="#297EA6" fill="none" stroke-width="2"></path></g><g transform="translate(198 403)"><path d="M0 -7L6.7 -2.2L4.1 5.7L-4.1 5.7L-6.7 -2.2Z" stroke="#297EA6" fill="none" stroke-width="2"></path></g><g transform="translate(885 24)"><path d="M0 -9L8.6 -2.8L5.3 7.3L-5.3 7.3L-8.6 -2.8Z" stroke="#297EA6" fill="none" stroke-width="2"></path></g><g transform="translate(657 461)"><path d="M0 -9L8.6 -2.8L5.3 7.3L-5.3 7.3L-8.6 -2.8Z" stroke="#297EA6" fill="none" stroke-width="2"></path></g><g transform="translate(242 219)"><path d="M0 -12L11.4 -3.7L7.1 9.7L-7.1 9.7L-11.4 -3.7Z" stroke="#297EA6" fill="none" stroke-width="2"></path></g><g transform="translate(20 22)"><path d="M0 -11L10.5 -3.4L6.5 8.9L-6.5 8.9L-10.5 -3.4Z" stroke="#297EA6" fill="none" stroke-width="2"></path></g><g transform="translate(159 372)"><path d="M0 -6L5.7 -1.9L3.5 4.9L-3.5 4.9L-5.7 -1.9Z" stroke="#297EA6" fill="none" stroke-width="2"></path></g><g transform="translate(121 111)"><path d="M0 -12L11.4 -3.7L7.1 9.7L-7.1 9.7L-11.4 -3.7Z" stroke="#297EA6" fill="none" stroke-width="2"></path></g><g transform="translate(848 149)"><path d="M0 -9L8.6 -2.8L5.3 7.3L-5.3 7.3L-8.6 -2.8Z" stroke="#297EA6" fill="none" stroke-width="2"></path></g><g transform="translate(29 593)"><path d="M0 -8L7.6 -2.5L4.7 6.5L-4.7 6.5L-7.6 -2.5Z" stroke="#297EA6" fill="none" stroke-width="2"></path></g><g transform="translate(613 306)"><path d="M0 -9L8.6 -2.8L5.3 7.3L-5.3 7.3L-8.6 -2.8Z" stroke="#297EA6" fill="none" stroke-width="2"></path></g><g transform="translate(856 69)"><path d="M0 -8L7.6 -2.5L4.7 6.5L-4.7 6.5L-7.6 -2.5Z" stroke="#297EA6" fill="none" stroke-width="2"></path></g><g transform="translate(605 68)"><path d="M0 -8L7.6 -2.5L4.7 6.5L-4.7 6.5L-7.6 -2.5Z" stroke="#297EA6" fill="none" stroke-width="2"></path></g><g transform="translate(108 572)"><path d="M0 -6L5.7 -1.9L3.5 4.9L-3.5 4.9L-5.7 -1.9Z" stroke="#297EA6" fill="none" stroke-width="2"></path></g><g transform="translate(783 127)"><path d="M0 -6L5.7 -1.9L3.5 4.9L-3.5 4.9L-5.7 -1.9Z" stroke="#297EA6" fill="none" stroke-width="2"></path></g><g transform="translate(56 76)"><path d="M0 -7L6.7 -2.2L4.1 5.7L-4.1 5.7L-6.7 -2.2Z" stroke="#297EA6" fill="none" stroke-width="2"></path></g><g transform="translate(868 444)"><path d="M0 -8L7.6 -2.5L4.7 6.5L-4.7 6.5L-7.6 -2.5Z" stroke="#297EA6" fill="none" stroke-width="2"></path></g><g transform="translate(334 300)"><path d="M0 -10L9.5 -3.1L5.9 8.1L-5.9 8.1L-9.5 -3.1Z" stroke="#297EA6" fill="none" stroke-width="2"></path></g><g transform="translate(519 146)"><path d="M0 -6L5.7 -1.9L3.5 4.9L-3.5 4.9L-5.7 -1.9Z" stroke="#297EA6" fill="none" stroke-width="2"></path></g><g transform="translate(189 104)"><path d="M0 -10L9.5 -3.1L5.9 8.1L-5.9 8.1L-9.5 -3.1Z" stroke="#297EA6" fill="none" stroke-width="2"></path></g><g transform="translate(92 286)"><path d="M0 -8L7.6 -2.5L4.7 6.5L-4.7 6.5L-7.6 -2.5Z" stroke="#297EA6" fill="none" stroke-width="2"></path></g><g transform="translate(457 532)"><path d="M0 -7L6.7 -2.2L4.1 5.7L-4.1 5.7L-6.7 -2.2Z" stroke="#297EA6" fill="none" stroke-width="2"></path></g><g transform="translate(245 372)"><path d="M0 -6L5.7 -1.9L3.5 4.9L-3.5 4.9L-5.7 -1.9Z" stroke="#297EA6" fill="none" stroke-width="2"></path></g><g transform="translate(641 380)"><path d="M0 -6L5.7 -1.9L3.5 4.9L-3.5 4.9L-5.7 -1.9Z" stroke="#297EA6" fill="none" stroke-width="2"></path></g><g transform="translate(853 544)"><path d="M0 -8L7.6 -2.5L4.7 6.5L-4.7 6.5L-7.6 -2.5Z" stroke="#297EA6" fill="none" stroke-width="2"></path></g><g transform="translate(898 290)"><path d="M0 -7L6.7 -2.2L4.1 5.7L-4.1 5.7L-6.7 -2.2Z" stroke="#297EA6" fill="none" stroke-width="2"></path></g><g transform="translate(608 428)"><path d="M0 -9L8.6 -2.8L5.3 7.3L-5.3 7.3L-8.6 -2.8Z" stroke="#297EA6" fill="none" stroke-width="2"></path></g><g transform="translate(717 103)"><path d="M0 -7L6.7 -2.2L4.1 5.7L-4.1 5.7L-6.7 -2.2Z" stroke="#297EA6" fill="none" stroke-width="2"></path></g><g transform="translate(696 29)"><path d="M0 -6L5.7 -1.9L3.5 4.9L-3.5 4.9L-5.7 -1.9Z" stroke="#297EA6" fill="none" stroke-width="2"></path></g><g transform="translate(214 445)"><path d="M0 -12L11.4 -3.7L7.1 9.7L-7.1 9.7L-11.4 -3.7Z" stroke="#297EA6" fill="none" stroke-width="2"></path></g><g transform="translate(816 374)"><path d="M0 -7L6.7 -2.2L4.1 5.7L-4.1 5.7L-6.7 -2.2Z" stroke="#297EA6" fill="none" stroke-width="2"></path></g><g transform="translate(726 370)"><path d="M0 -12L11.4 -3.7L7.1 9.7L-7.1 9.7L-11.4 -3.7Z" stroke="#297EA6" fill="none" stroke-width="2"></path></g><g transform="translate(595 485)"><path d="M0 -10L9.5 -3.1L5.9 8.1L-5.9 8.1L-9.5 -3.1Z" stroke="#297EA6" fill="none" stroke-width="2"></path></g><g transform="translate(371 255)"><path d="M0 -12L11.4 -3.7L7.1 9.7L-7.1 9.7L-11.4 -3.7Z" stroke="#297EA6" fill="none" stroke-width="2"></path></g><g transform="translate(95 441)"><path d="M0 -9L8.6 -2.8L5.3 7.3L-5.3 7.3L-8.6 -2.8Z" stroke="#297EA6" fill="none" stroke-width="2"></path></g><g transform="translate(68 458)"><path d="M0 -7L6.7 -2.2L4.1 5.7L-4.1 5.7L-6.7 -2.2Z" stroke="#297EA6" fill="none" stroke-width="2"></path></g><g transform="translate(197 480)"><path d="M0 -8L7.6 -2.5L4.7 6.5L-4.7 6.5L-7.6 -2.5Z" stroke="#297EA6" fill="none" stroke-width="2"></path></g><g transform="translate(366 322)"><path d="M0 -10L9.5 -3.1L5.9 8.1L-5.9 8.1L-9.5 -3.1Z" stroke="#297EA6" fill="none" stroke-width="2"></path></g><g transform="translate(50 391)"><path d="M0 -7L6.7 -2.2L4.1 5.7L-4.1 5.7L-6.7 -2.2Z" stroke="#297EA6" fill="none" stroke-width="2"></path></g><g transform="translate(749 265)"><path d="M0 -9L8.6 -2.8L5.3 7.3L-5.3 7.3L-8.6 -2.8Z" stroke="#297EA6" fill="none" stroke-width="2"></path></g><g transform="translate(594 207)"><path d="M0 -7L6.7 -2.2L4.1 5.7L-4.1 5.7L-6.7 -2.2Z" stroke="#297EA6" fill="none" stroke-width="2"></path></g><g transform="translate(454 409)"><path d="M0 -8L7.6 -2.5L4.7 6.5L-4.7 6.5L-7.6 -2.5Z" stroke="#297EA6" fill="none" stroke-width="2"></path></g><g transform="translate(826 188)"><path d="M0 -6L5.7 -1.9L3.5 4.9L-3.5 4.9L-5.7 -1.9Z" stroke="#297EA6" fill="none" stroke-width="2"></path></g><g transform="translate(836 472)"><path d="M0 -11L10.5 -3.4L6.5 8.9L-6.5 8.9L-10.5 -3.4Z" stroke="#297EA6" fill="none" stroke-width="2"></path></g><g transform="translate(603 124)"><path d="M0 -10L9.5 -3.1L5.9 8.1L-5.9 8.1L-9.5 -3.1Z" stroke="#297EA6" fill="none" stroke-width="2"></path></g><g transform="translate(800 229)"><path d="M0 -12L11.4 -3.7L7.1 9.7L-7.1 9.7L-11.4 -3.7Z" stroke="#297EA6" fill="none" stroke-width="2"></path></g><g transform="translate(205 139)"><path d="M0 -11L10.5 -3.4L6.5 8.9L-6.5 8.9L-10.5 -3.4Z" stroke="#297EA6" fill="none" stroke-width="2"></path></g><g transform="translate(191 297)"><path d="M0 -8L7.6 -2.5L4.7 6.5L-4.7 6.5L-7.6 -2.5Z" stroke="#297EA6" fill="none" stroke-width="2"></path></g><g transform="translate(422 450)"><path d="M0 -12L11.4 -3.7L7.1 9.7L-7.1 9.7L-11.4 -3.7Z" stroke="#297EA6" fill="none" stroke-width="2"></path></g><g transform="translate(647 62)"><path d="M0 -10L9.5 -3.1L5.9 8.1L-5.9 8.1L-9.5 -3.1Z" stroke="#297EA6" fill="none" stroke-width="2"></path></g><g transform="translate(80 259)"><path d="M0 -12L11.4 -3.7L7.1 9.7L-7.1 9.7L-11.4 -3.7Z" stroke="#297EA6" fill="none" stroke-width="2"></path></g><g transform="translate(296 484)"><path d="M0 -12L11.4 -3.7L7.1 9.7L-7.1 9.7L-11.4 -3.7Z" stroke="#297EA6" fill="none" stroke-width="2"></path></g><g transform="translate(103 236)"><path d="M0 -9L8.6 -2.8L5.3 7.3L-5.3 7.3L-8.6 -2.8Z" stroke="#297EA6" fill="none" stroke-width="2"></path></g><g transform="translate(479 22)"><path d="M0 -10L9.5 -3.1L5.9 8.1L-5.9 8.1L-9.5 -3.1Z" stroke="#297EA6" fill="none" stroke-width="2"></path></g><g transform="translate(800 181)"><path d="M0 -9L8.6 -2.8L5.3 7.3L-5.3 7.3L-8.6 -2.8Z" stroke="#297EA6" fill="none" stroke-width="2"></path></g><g transform="translate(534 508)"><path d="M0 -11L10.5 -3.4L6.5 8.9L-6.5 8.9L-10.5 -3.4Z" stroke="#297EA6" fill="none" stroke-width="2"></path></g><g transform="translate(150 469)"><path d="M0 -9L8.6 -2.8L5.3 7.3L-5.3 7.3L-8.6 -2.8Z" stroke="#297EA6" fill="none" stroke-width="2"></path></g><g transform="translate(677 351)"><path d="M0 -11L10.5 -3.4L6.5 8.9L-6.5 8.9L-10.5 -3.4Z" stroke="#297EA6" fill="none" stroke-width="2"></path></g><g transform="translate(257 567)"><path d="M0 -12L11.4 -3.7L7.1 9.7L-7.1 9.7L-11.4 -3.7Z" stroke="#297EA6" fill="none" stroke-width="2"></path></g><g transform="translate(86 183)"><path d="M0 -10L9.5 -3.1L5.9 8.1L-5.9 8.1L-9.5 -3.1Z" stroke="#297EA6" fill="none" stroke-width="2"></path></g><g transform="translate(576 585)"><path d="M0 -8L7.6 -2.5L4.7 6.5L-4.7 6.5L-7.6 -2.5Z" stroke="#297EA6" fill="none" stroke-width="2"></path></g><g transform="translate(777 277)"><path d="M0 -12L11.4 -3.7L7.1 9.7L-7.1 9.7L-11.4 -3.7Z" stroke="#297EA6" fill="none" stroke-width="2"></path></g><g transform="translate(144 35)"><path d="M0 -8L7.6 -2.5L4.7 6.5L-4.7 6.5L-7.6 -2.5Z" stroke="#297EA6" fill="none" stroke-width="2"></path></g><g transform="translate(552 87)"><path d="M0 -6L5.7 -1.9L3.5 4.9L-3.5 4.9L-5.7 -1.9Z" stroke="#297EA6" fill="none" stroke-width="2"></path></g><g transform="translate(734 307)"><path d="M0 -8L7.6 -2.5L4.7 6.5L-4.7 6.5L-7.6 -2.5Z" stroke="#297EA6" fill="none" stroke-width="2"></path></g><g transform="translate(794 554)"><path d="M0 -6L5.7 -1.9L3.5 4.9L-3.5 4.9L-5.7 -1.9Z" stroke="#297EA6" fill="none" stroke-width="2"></path></g><g transform="translate(715 563)"><path d="M0 -12L11.4 -3.7L7.1 9.7L-7.1 9.7L-11.4 -3.7Z" stroke="#297EA6" fill="none" stroke-width="2"></path></g><g transform="translate(508 582)"><path d="M0 -10L9.5 -3.1L5.9 8.1L-5.9 8.1L-9.5 -3.1Z" stroke="#297EA6" fill="none" stroke-width="2"></path></g><g transform="translate(122 274)"><path d="M0 -10L9.5 -3.1L5.9 8.1L-5.9 8.1L-9.5 -3.1Z" stroke="#297EA6" fill="none" stroke-width="2"></path></g><g transform="translate(293 440)"><path d="M0 -10L9.5 -3.1L5.9 8.1L-5.9 8.1L-9.5 -3.1Z" stroke="#297EA6" fill="none" stroke-width="2"></path></g><g transform="translate(333 35)"><path d="M0 -8L7.6 -2.5L4.7 6.5L-4.7 6.5L-7.6 -2.5Z" stroke="#297EA6" fill="none" stroke-width="2"></path></g><g transform="translate(373 214)"><path d="M0 -8L7.6 -2.5L4.7 6.5L-4.7 6.5L-7.6 -2.5Z" stroke="#297EA6" fill="none" stroke-width="2"></path></g><g transform="translate(353 234)"><path d="M0 -8L7.6 -2.5L4.7 6.5L-4.7 6.5L-7.6 -2.5Z" stroke="#297EA6" fill="none" stroke-width="2"></path></g><g transform="translate(515 178)"><path d="M0 -7L6.7 -2.2L4.1 5.7L-4.1 5.7L-6.7 -2.2Z" stroke="#297EA6" fill="none" stroke-width="2"></path></g><g transform="translate(344 550)"><path d="M0 -7L6.7 -2.2L4.1 5.7L-4.1 5.7L-6.7 -2.2Z" stroke="#297EA6" fill="none" stroke-width="2"></path></g><g transform="translate(651 246)"><path d="M0 -10L9.5 -3.1L5.9 8.1L-5.9 8.1L-9.5 -3.1Z" stroke="#297EA6" fill="none" stroke-width="2"></path></g><g transform="translate(211 572)"><path d="M0 -9L8.6 -2.8L5.3 7.3L-5.3 7.3L-8.6 -2.8Z" stroke="#297EA6" fill="none" stroke-width="2"></path></g><g transform="translate(832 289)"><path d="M0 -7L6.7 -2.2L4.1 5.7L-4.1 5.7L-6.7 -2.2Z" stroke="#297EA6" fill="none" stroke-width="2"></path></g><g transform="translate(890 192)"><path d="M0 -12L11.4 -3.7L7.1 9.7L-7.1 9.7L-11.4 -3.7Z" stroke="#297EA6" fill="none" stroke-width="2"></path></g><g transform="translate(293 512)"><path d="M0 -8L7.6 -2.5L4.7 6.5L-4.7 6.5L-7.6 -2.5Z" stroke="#297EA6" fill="none" stroke-width="2"></path></g><g transform="translate(652 327)"><path d="M0 -6L5.7 -1.9L3.5 4.9L-3.5 4.9L-5.7 -1.9Z" stroke="#297EA6" fill="none" stroke-width="2"></path></g><g transform="translate(218 171)"><path d="M0 -7L6.7 -2.2L4.1 5.7L-4.1 5.7L-6.7 -2.2Z" stroke="#297EA6" fill="none" stroke-width="2"></path></g><g transform="translate(215 513)"><path d="M0 -7L6.7 -2.2L4.1 5.7L-4.1 5.7L-6.7 -2.2Z" stroke="#297EA6" fill="none" stroke-width="2"></path></g><g transform="translate(370 350)"><path d="M0 -11L10.5 -3.4L6.5 8.9L-6.5 8.9L-10.5 -3.4Z" stroke="#297EA6" fill="none" stroke-width="2"></path></g><g transform="translate(808 109)"><path d="M0 -8L7.6 -2.5L4.7 6.5L-4.7 6.5L-7.6 -2.5Z" stroke="#297EA6" fill="none" stroke-width="2"></path></g><g transform="translate(305 580)"><path d="M0 -11L10.5 -3.4L6.5 8.9L-6.5 8.9L-10.5 -3.4Z" stroke="#297EA6" fill="none" stroke-width="2"></path></g><g transform="translate(708 179)"><path d="M0 -10L9.5 -3.1L5.9 8.1L-5.9 8.1L-9.5 -3.1Z" stroke="#297EA6" fill="none" stroke-width="2"></path></g><g transform="translate(36 171)"><path d="M0 -7L6.7 -2.2L4.1 5.7L-4.1 5.7L-6.7 -2.2Z" stroke="#297EA6" fill="none" stroke-width="2"></path></g><g transform="translate(29 304)"><path d="M0 -11L10.5 -3.4L6.5 8.9L-6.5 8.9L-10.5 -3.4Z" stroke="#297EA6" fill="none" stroke-width="2"></path></g><g transform="translate(625 202)"><path d="M0 -9L8.6 -2.8L5.3 7.3L-5.3 7.3L-8.6 -2.8Z" stroke="#297EA6" fill="none" stroke-width="2"></path></g><g transform="translate(680 579)"><path d="M0 -11L10.5 -3.4L6.5 8.9L-6.5 8.9L-10.5 -3.4Z" stroke="#297EA6" fill="none" stroke-width="2"></path></g><g transform="translate(270 38)"><path d="M0 -6L5.7 -1.9L3.5 4.9L-3.5 4.9L-5.7 -1.9Z" stroke="#297EA6" fill="none" stroke-width="2"></path></g><g transform="translate(108 472)"><path d="M0 -10L9.5 -3.1L5.9 8.1L-5.9 8.1L-9.5 -3.1Z" stroke="#297EA6" fill="none" stroke-width="2"></path></g><g transform="translate(442 381)"><path d="M0 -9L8.6 -2.8L5.3 7.3L-5.3 7.3L-8.6 -2.8Z" stroke="#297EA6" fill="none" stroke-width="2"></path></g><g transform="translate(547 351)"><path d="M0 -9L8.6 -2.8L5.3 7.3L-5.3 7.3L-8.6 -2.8Z" stroke="#297EA6" fill="none" stroke-width="2"></path></g><g transform="translate(486 167)"><path d="M0 -7L6.7 -2.2L4.1 5.7L-4.1 5.7L-6.7 -2.2Z" stroke="#297EA6" fill="none" stroke-width="2"></path></g><g transform="translate(307 69)"><path d="M0 -8L7.6 -2.5L4.7 6.5L-4.7 6.5L-7.6 -2.5Z" stroke="#297EA6" fill="none" stroke-width="2"></path></g><g transform="translate(767 485)"><path d="M0 -11L10.5 -3.4L6.5 8.9L-6.5 8.9L-10.5 -3.4Z" stroke="#297EA6" fill="none" stroke-width="2"></path></g><g transform="translate(760 391)"><path d="M0 -12L11.4 -3.7L7.1 9.7L-7.1 9.7L-11.4 -3.7Z" stroke="#297EA6" fill="none" stroke-width="2"></path></g><g transform="translate(887 125)"><path d="M0 -6L5.7 -1.9L3.5 4.9L-3.5 4.9L-5.7 -1.9Z" stroke="#297EA6" fill="none" stroke-width="2"></path></g><g transform="translate(765 223)"><path d="M0 -10L9.5 -3.1L5.9 8.1L-5.9 8.1L-9.5 -3.1Z" stroke="#297EA6" fill="none" stroke-width="2"></path></g><g transform="translate(807 441)"><path d="M0 -9L8.6 -2.8L5.3 7.3L-5.3 7.3L-8.6 -2.8Z" stroke="#297EA6" fill="none" stroke-width="2"></path></g><g transform="translate(411 53)"><path d="M0 -6L5.7 -1.9L3.5 4.9L-3.5 4.9L-5.7 -1.9Z" stroke="#297EA6" fill="none" stroke-width="2"></path></g><g transform="translate(869 352)"><path d="M0 -10L9.5 -3.1L5.9 8.1L-5.9 8.1L-9.5 -3.1Z" stroke="#297EA6" fill="none" stroke-width="2"></path></g><g transform="translate(242 340)"><path d="M0 -9L8.6 -2.8L5.3 7.3L-5.3 7.3L-8.6 -2.8Z" stroke="#297EA6" fill="none" stroke-width="2"></path></g><g transform="translate(590 11)"><path d="M0 -8L7.6 -2.5L4.7 6.5L-4.7 6.5L-7.6 -2.5Z" stroke="#297EA6" fill="none" stroke-width="2"></path></g><g transform="translate(515 537)"><path d="M0 -6L5.7 -1.9L3.5 4.9L-3.5 4.9L-5.7 -1.9Z" stroke="#297EA6" fill="none" stroke-width="2"></path></g><g transform="translate(287 110)"><path d="M0 -8L7.6 -2.5L4.7 6.5L-4.7 6.5L-7.6 -2.5Z" stroke="#297EA6" fill="none" stroke-width="2"></path></g><g transform="translate(137 324)"><path d="M0 -8L7.6 -2.5L4.7 6.5L-4.7 6.5L-7.6 -2.5Z" stroke="#297EA6" fill="none" stroke-width="2"></path></g><g transform="translate(481 432)"><path d="M0 -6L5.7 -1.9L3.5 4.9L-3.5 4.9L-5.7 -1.9Z" stroke="#297EA6" fill="none" stroke-width="2"></path></g><g transform="translate(711 275)"><path d="M0 -12L11.4 -3.7L7.1 9.7L-7.1 9.7L-11.4 -3.7Z" stroke="#297EA6" fill="none" stroke-width="2"></path></g><g transform="translate(365 289)"><path d="M0 -8L7.6 -2.5L4.7 6.5L-4.7 6.5L-7.6 -2.5Z" stroke="#297EA6" fill="none" stroke-width="2"></path></g><g transform="translate(107 538)"><path d="M0 -7L6.7 -2.2L4.1 5.7L-4.1 5.7L-6.7 -2.2Z" stroke="#297EA6" fill="none" stroke-width="2"></path></g><g transform="translate(496 123)"><path d="M0 -12L11.4 -3.7L7.1 9.7L-7.1 9.7L-11.4 -3.7Z" stroke="#297EA6" fill="none" stroke-width="2"></path></g><g transform="translate(319 522)"><path d="M0 -9L8.6 -2.8L5.3 7.3L-5.3 7.3L-8.6 -2.8Z" stroke="#297EA6" fill="none" stroke-width="2"></path></g><g transform="translate(773 581)"><path d="M0 -8L7.6 -2.5L4.7 6.5L-4.7 6.5L-7.6 -2.5Z" stroke="#297EA6" fill="none" stroke-width="2"></path></g><g transform="translate(668 149)"><path d="M0 -7L6.7 -2.2L4.1 5.7L-4.1 5.7L-6.7 -2.2Z" stroke="#297EA6" fill="none" stroke-width="2"></path></g><g transform="translate(294 254)"><path d="M0 -9L8.6 -2.8L5.3 7.3L-5.3 7.3L-8.6 -2.8Z" stroke="#297EA6" fill="none" stroke-width="2"></path></g><g transform="translate(319 412)"><path d="M0 -12L11.4 -3.7L7.1 9.7L-7.1 9.7L-11.4 -3.7Z" stroke="#297EA6" fill="none" stroke-width="2"></path></g><g transform="translate(760 47)"><path d="M0 -11L10.5 -3.4L6.5 8.9L-6.5 8.9L-10.5 -3.4Z" stroke="#297EA6" fill="none" stroke-width="2"></path></g><g transform="translate(57 17)"><path d="M0 -12L11.4 -3.7L7.1 9.7L-7.1 9.7L-11.4 -3.7Z" stroke="#297EA6" fill="none" stroke-width="2"></path></g><g transform="translate(180 508)"><path d="M0 -12L11.4 -3.7L7.1 9.7L-7.1 9.7L-11.4 -3.7Z" stroke="#297EA6" fill="none" stroke-width="2"></path></g><g transform="translate(103 387)"><path d="M0 -7L6.7 -2.2L4.1 5.7L-4.1 5.7L-6.7 -2.2Z" stroke="#297EA6" fill="none" stroke-width="2"></path></g><g transform="translate(705 239)"><path d="M0 -9L8.6 -2.8L5.3 7.3L-5.3 7.3L-8.6 -2.8Z" stroke="#297EA6" fill="none" stroke-width="2"></path></g><g transform="translate(697 442)"><path d="M0 -12L11.4 -3.7L7.1 9.7L-7.1 9.7L-11.4 -3.7Z" stroke="#297EA6" fill="none" stroke-width="2"></path></g><g transform="translate(424 360)"><path d="M0 -9L8.6 -2.8L5.3 7.3L-5.3 7.3L-8.6 -2.8Z" stroke="#297EA6" fill="none" stroke-width="2"></path></g><g transform="translate(657 214)"><path d="M0 -12L11.4 -3.7L7.1 9.7L-7.1 9.7L-11.4 -3.7Z" stroke="#297EA6" fill="none" stroke-width="2"></path></g><g transform="translate(757 517)"><path d="M0 -12L11.4 -3.7L7.1 9.7L-7.1 9.7L-11.4 -3.7Z" stroke="#297EA6" fill="none" stroke-width="2"></path></g><g transform="translate(401 348)"><path d="M0 -8L7.6 -2.5L4.7 6.5L-4.7 6.5L-7.6 -2.5Z" stroke="#297EA6" fill="none" stroke-width="2"></path></g><g transform="translate(18 453)"><path d="M0 -10L9.5 -3.1L5.9 8.1L-5.9 8.1L-9.5 -3.1Z" stroke="#297EA6" fill="none" stroke-width="2"></path></g><g transform="translate(884 543)"><path d="M0 -9L8.6 -2.8L5.3 7.3L-5.3 7.3L-8.6 -2.8Z" stroke="#297EA6" fill="none" stroke-width="2"></path></g><g transform="translate(89 118)"><path d="M0 -11L10.5 -3.4L6.5 8.9L-6.5 8.9L-10.5 -3.4Z" stroke="#297EA6" fill="none" stroke-width="2"></path></g><g transform="translate(664 106)"><path d="M0 -9L8.6 -2.8L5.3 7.3L-5.3 7.3L-8.6 -2.8Z" stroke="#297EA6" fill="none" stroke-width="2"></path></g><g transform="translate(243 516)"><path d="M0 -7L6.7 -2.2L4.1 5.7L-4.1 5.7L-6.7 -2.2Z" stroke="#297EA6" fill="none" stroke-width="2"></path></g><g transform="translate(329 194)"><path d="M0 -9L8.6 -2.8L5.3 7.3L-5.3 7.3L-8.6 -2.8Z" stroke="#297EA6" fill="none" stroke-width="2"></path></g><g transform="translate(116 301)"><path d="M0 -9L8.6 -2.8L5.3 7.3L-5.3 7.3L-8.6 -2.8Z" stroke="#297EA6" fill="none" stroke-width="2"></path></g><g transform="translate(53 342)"><path d="M0 -11L10.5 -3.4L6.5 8.9L-6.5 8.9L-10.5 -3.4Z" stroke="#297EA6" fill="none" stroke-width="2"></path></g><g transform="translate(237 112)"><path d="M0 -12L11.4 -3.7L7.1 9.7L-7.1 9.7L-11.4 -3.7Z" stroke="#297EA6" fill="none" stroke-width="2"></path></g><g transform="translate(4 346)"><path d="M0 -12L11.4 -3.7L7.1 9.7L-7.1 9.7L-11.4 -3.7Z" stroke="#297EA6" fill="none" stroke-width="2"></path></g><g transform="translate(826 345)"><path d="M0 -8L7.6 -2.5L4.7 6.5L-4.7 6.5L-7.6 -2.5Z" stroke="#297EA6" fill="none" stroke-width="2"></path></g><g transform="translate(722 34)"><path d="M0 -9L8.6 -2.8L5.3 7.3L-5.3 7.3L-8.6 -2.8Z" stroke="#297EA6" fill="none" stroke-width="2"></path></g><g transform="translate(418 15)"><path d="M0 -11L10.5 -3.4L6.5 8.9L-6.5 8.9L-10.5 -3.4Z" stroke="#297EA6" fill="none" stroke-width="2"></path></g><g transform="translate(377 35)"><path d="M0 -10L9.5 -3.1L5.9 8.1L-5.9 8.1L-9.5 -3.1Z" stroke="#297EA6" fill="none" stroke-width="2"></path></g><g transform="translate(734 196)"><path d="M0 -6L5.7 -1.9L3.5 4.9L-3.5 4.9L-5.7 -1.9Z" stroke="#297EA6" fill="none" stroke-width="2"></path></g><g transform="translate(128 365)"><path d="M0 -12L11.4 -3.7L7.1 9.7L-7.1 9.7L-11.4 -3.7Z" stroke="#297EA6" fill="none" stroke-width="2"></path></g><g transform="translate(317 327)"><path d="M0 -9L8.6 -2.8L5.3 7.3L-5.3 7.3L-8.6 -2.8Z" stroke="#297EA6" fill="none" stroke-width="2"></path></g><g transform="translate(513 71)"><path d="M0 -9L8.6 -2.8L5.3 7.3L-5.3 7.3L-8.6 -2.8Z" stroke="#297EA6" fill="none" stroke-width="2"></path></g><g transform="translate(858 255)"><path d="M0 -7L6.7 -2.2L4.1 5.7L-4.1 5.7L-6.7 -2.2Z" stroke="#297EA6" fill="none" stroke-width="2"></path></g><g transform="translate(304 26)"><path d="M0 -7L6.7 -2.2L4.1 5.7L-4.1 5.7L-6.7 -2.2Z" stroke="#297EA6" fill="none" stroke-width="2"></path></g><g transform="translate(450 459)"><path d="M0 -12L11.4 -3.7L7.1 9.7L-7.1 9.7L-11.4 -3.7Z" stroke="#297EA6" fill="none" stroke-width="2"></path></g><g transform="translate(838 35)"><path d="M0 -6L5.7 -1.9L3.5 4.9L-3.5 4.9L-5.7 -1.9Z" stroke="#297EA6" fill="none" stroke-width="2"></path></g><g transform="translate(306 553)"><path d="M0 -11L10.5 -3.4L6.5 8.9L-6.5 8.9L-10.5 -3.4Z" stroke="#297EA6" fill="none" stroke-width="2"></path></g><g transform="translate(639 522)"><path d="M0 -11L10.5 -3.4L6.5 8.9L-6.5 8.9L-10.5 -3.4Z" stroke="#297EA6" fill="none" stroke-width="2"></path></g><g transform="translate(386 543)"><path d="M0 -10L9.5 -3.1L5.9 8.1L-5.9 8.1L-9.5 -3.1Z" stroke="#297EA6" fill="none" stroke-width="2"></path></g><g transform="translate(817 497)"><path d="M0 -10L9.5 -3.1L5.9 8.1L-5.9 8.1L-9.5 -3.1Z" stroke="#297EA6" fill="none" stroke-width="2"></path></g><g transform="translate(33 127)"><path d="M0 -12L11.4 -3.7L7.1 9.7L-7.1 9.7L-11.4 -3.7Z" stroke="#297EA6" fill="none" stroke-width="2"></path></g><g transform="translate(597 386)"><path d="M0 -10L9.5 -3.1L5.9 8.1L-5.9 8.1L-9.5 -3.1Z" stroke="#297EA6" fill="none" stroke-width="2"></path></g><g transform="translate(29 65)"><path d="M0 -9L8.6 -2.8L5.3 7.3L-5.3 7.3L-8.6 -2.8Z" stroke="#297EA6" fill="none" stroke-width="2"></path></g><g transform="translate(863 411)"><path d="M0 -11L10.5 -3.4L6.5 8.9L-6.5 8.9L-10.5 -3.4Z" stroke="#297EA6" fill="none" stroke-width="2"></path></g><g transform="translate(199 370)"><path d="M0 -12L11.4 -3.7L7.1 9.7L-7.1 9.7L-11.4 -3.7Z" stroke="#297EA6" fill="none" stroke-width="2"></path></g><g transform="translate(157 120)"><path d="M0 -11L10.5 -3.4L6.5 8.9L-6.5 8.9L-10.5 -3.4Z" stroke="#297EA6" fill="none" stroke-width="2"></path></g><g transform="translate(266 145)"><path d="M0 -10L9.5 -3.1L5.9 8.1L-5.9 8.1L-9.5 -3.1Z" stroke="#297EA6" fill="none" stroke-width="2"></path></g><g transform="translate(173 170)"><path d="M0 -8L7.6 -2.5L4.7 6.5L-4.7 6.5L-7.6 -2.5Z" stroke="#297EA6" fill="none" stroke-width="2"></path></g><g transform="translate(561 300)"><path d="M0 -12L11.4 -3.7L7.1 9.7L-7.1 9.7L-11.4 -3.7Z" stroke="#297EA6" fill="none" stroke-width="2"></path></g><g transform="translate(219 244)"><path d="M0 -9L8.6 -2.8L5.3 7.3L-5.3 7.3L-8.6 -2.8Z" stroke="#297EA6" fill="none" stroke-width="2"></path></g><g transform="translate(488 519)"><path d="M0 -12L11.4 -3.7L7.1 9.7L-7.1 9.7L-11.4 -3.7Z" stroke="#297EA6" fill="none" stroke-width="2"></path></g><g transform="translate(4 478)"><path d="M0 -12L11.4 -3.7L7.1 9.7L-7.1 9.7L-11.4 -3.7Z" stroke="#297EA6" fill="none" stroke-width="2"></path></g><g transform="translate(391 92)"><path d="M0 -9L8.6 -2.8L5.3 7.3L-5.3 7.3L-8.6 -2.8Z" stroke="#297EA6" fill="none" stroke-width="2"></path></g><g transform="translate(737 464)"><path d="M0 -10L9.5 -3.1L5.9 8.1L-5.9 8.1L-9.5 -3.1Z" stroke="#297EA6" fill="none" stroke-width="2"></path></g><g transform="translate(835 425)"><path d="M0 -7L6.7 -2.2L4.1 5.7L-4.1 5.7L-6.7 -2.2Z" stroke="#297EA6" fill="none" stroke-width="2"></path></g><g transform="translate(185 433)"><path d="M0 -6L5.7 -1.9L3.5 4.9L-3.5 4.9L-5.7 -1.9Z" stroke="#297EA6" fill="none" stroke-width="2"></path></g><g transform="translate(513 279)"><path d="M0 -12L11.4 -3.7L7.1 9.7L-7.1 9.7L-11.4 -3.7Z" stroke="#297EA6" fill="none" stroke-width="2"></path></g><g transform="translate(895 597)"><path d="M0 -10L9.5 -3.1L5.9 8.1L-5.9 8.1L-9.5 -3.1Z" stroke="#297EA6" fill="none" stroke-width="2"></path></g><g transform="translate(215 86)"><path d="M0 -8L7.6 -2.5L4.7 6.5L-4.7 6.5L-7.6 -2.5Z" stroke="#297EA6" fill="none" stroke-width="2"></path></g><g transform="translate(189 589)"><path d="M0 -9L8.6 -2.8L5.3 7.3L-5.3 7.3L-8.6 -2.8Z" stroke="#297EA6" fill="none" stroke-width="2"></path></g><g transform="translate(135 585)"><path d="M0 -11L10.5 -3.4L6.5 8.9L-6.5 8.9L-10.5 -3.4Z" stroke="#297EA6" fill="none" stroke-width="2"></path></g><g transform="translate(813 135)"><path d="M0 -7L6.7 -2.2L4.1 5.7L-4.1 5.7L-6.7 -2.2Z" stroke="#297EA6" fill="none" stroke-width="2"></path></g><g transform="translate(617 548)"><path d="M0 -8L7.6 -2.5L4.7 6.5L-4.7 6.5L-7.6 -2.5Z" stroke="#297EA6" fill="none" stroke-width="2"></path></g><g transform="translate(571 407)"><path d="M0 -10L9.5 -3.1L5.9 8.1L-5.9 8.1L-9.5 -3.1Z" stroke="#297EA6" fill="none" stroke-width="2"></path></g><g transform="translate(506 334)"><path d="M0 -11L10.5 -3.4L6.5 8.9L-6.5 8.9L-10.5 -3.4Z" stroke="#297EA6" fill="none" stroke-width="2"></path></g><g transform="translate(465 194)"><path d="M0 -12L11.4 -3.7L7.1 9.7L-7.1 9.7L-11.4 -3.7Z" stroke="#297EA6" fill="none" stroke-width="2"></path></g><g transform="translate(2 179)"><path d="M0 -9L8.6 -2.8L5.3 7.3L-5.3 7.3L-8.6 -2.8Z" stroke="#297EA6" fill="none" stroke-width="2"></path></g><g transform="translate(386 395)"><path d="M0 -7L6.7 -2.2L4.1 5.7L-4.1 5.7L-6.7 -2.2Z" stroke="#297EA6" fill="none" stroke-width="2"></path></g><g transform="translate(734 334)"><path d="M0 -7L6.7 -2.2L4.1 5.7L-4.1 5.7L-6.7 -2.2Z" stroke="#297EA6" fill="none" stroke-width="2"></path></g><g transform="translate(277 278)"><path d="M0 -6L5.7 -1.9L3.5 4.9L-3.5 4.9L-5.7 -1.9Z" stroke="#297EA6" fill="none" stroke-width="2"></path></g><g transform="translate(268 191)"><path d="M0 -12L11.4 -3.7L7.1 9.7L-7.1 9.7L-11.4 -3.7Z" stroke="#297EA6" fill="none" stroke-width="2"></path></g><g transform="translate(188 9)"><path d="M0 -6L5.7 -1.9L3.5 4.9L-3.5 4.9L-5.7 -1.9Z" stroke="#297EA6" fill="none" stroke-width="2"></path></g><g transform="translate(808 278)"><path d="M0 -12L11.4 -3.7L7.1 9.7L-7.1 9.7L-11.4 -3.7Z" stroke="#297EA6" fill="none" stroke-width="2"></path></g><g transform="translate(744 551)"><path d="M0 -9L8.6 -2.8L5.3 7.3L-5.3 7.3L-8.6 -2.8Z" stroke="#297EA6" fill="none" stroke-width="2"></path></g><g transform="translate(386 121)"><path d="M0 -8L7.6 -2.5L4.7 6.5L-4.7 6.5L-7.6 -2.5Z" stroke="#297EA6" fill="none" stroke-width="2"></path></g><g transform="translate(278 346)"><path d="M0 -6L5.7 -1.9L3.5 4.9L-3.5 4.9L-5.7 -1.9Z" stroke="#297EA6" fill="none" stroke-width="2"></path></g><g transform="translate(368 458)"><path d="M0 -9L8.6 -2.8L5.3 7.3L-5.3 7.3L-8.6 -2.8Z" stroke="#297EA6" fill="none" stroke-width="2"></path></g><g transform="translate(633 442)"><path d="M0 -12L11.4 -3.7L7.1 9.7L-7.1 9.7L-11.4 -3.7Z" stroke="#297EA6" fill="none" stroke-width="2"></path></g><g transform="translate(870 211)"><path d="M0 -6L5.7 -1.9L3.5 4.9L-3.5 4.9L-5.7 -1.9Z" stroke="#297EA6" fill="none" stroke-width="2"></path></g><g transform="translate(37 524)"><path d="M0 -12L11.4 -3.7L7.1 9.7L-7.1 9.7L-11.4 -3.7Z" stroke="#297EA6" fill="none" stroke-width="2"></path></g><g transform="translate(229 6)"><path d="M0 -8L7.6 -2.5L4.7 6.5L-4.7 6.5L-7.6 -2.5Z" stroke="#297EA6" fill="none" stroke-width="2"></path></g><g transform="translate(287 225)"><path d="M0 -11L10.5 -3.4L6.5 8.9L-6.5 8.9L-10.5 -3.4Z" stroke="#297EA6" fill="none" stroke-width="2"></path></g><g transform="translate(452 134)"><path d="M0 -7L6.7 -2.2L4.1 5.7L-4.1 5.7L-6.7 -2.2Z" stroke="#297EA6" fill="none" stroke-width="2"></path></g><g transform="translate(499 483)"><path d="M0 -9L8.6 -2.8L5.3 7.3L-5.3 7.3L-8.6 -2.8Z" stroke="#297EA6" fill="none" stroke-width="2"></path></g><g transform="translate(230 48)"><path d="M0 -10L9.5 -3.1L5.9 8.1L-5.9 8.1L-9.5 -3.1Z" stroke="#297EA6" fill="none" stroke-width="2"></path></g><g transform="translate(682 483)"><path d="M0 -10L9.5 -3.1L5.9 8.1L-5.9 8.1L-9.5 -3.1Z" stroke="#297EA6" fill="none" stroke-width="2"></path></g><g transform="translate(483 286)"><path d="M0 -6L5.7 -1.9L3.5 4.9L-3.5 4.9L-5.7 -1.9Z" stroke="#297EA6" fill="none" stroke-width="2"></path></g><g transform="translate(326 5)"><path d="M0 -9L8.6 -2.8L5.3 7.3L-5.3 7.3L-8.6 -2.8Z" stroke="#297EA6" fill="none" stroke-width="2"></path></g><g transform="translate(848 112)"><path d="M0 -8L7.6 -2.5L4.7 6.5L-4.7 6.5L-7.6 -2.5Z" stroke="#297EA6" fill="none" stroke-width="2"></path></g><g transform="translate(251 428)"><path d="M0 -10L9.5 -3.1L5.9 8.1L-5.9 8.1L-9.5 -3.1Z" stroke="#297EA6" fill="none" stroke-width="2"></path></g><g transform="translate(825 86)"><path d="M0 -11L10.5 -3.4L6.5 8.9L-6.5 8.9L-10.5 -3.4Z" stroke="#297EA6" fill="none" stroke-width="2"></path></g><g transform="translate(431 223)"><path d="M0 -11L10.5 -3.4L6.5 8.9L-6.5 8.9L-10.5 -3.4Z" stroke="#297EA6" fill="none" stroke-width="2"></path></g><g transform="translate(584 265)"><path d="M0 -11L10.5 -3.4L6.5 8.9L-6.5 8.9L-10.5 -3.4Z" stroke="#297EA6" fill="none" stroke-width="2"></path></g><g transform="translate(856 177)"><path d="M0 -12L11.4 -3.7L7.1 9.7L-7.1 9.7L-11.4 -3.7Z" stroke="#297EA6" fill="none" stroke-width="2"></path></g><g transform="translate(150 152)"><path d="M0 -6L5.7 -1.9L3.5 4.9L-3.5 4.9L-5.7 -1.9Z" stroke="#297EA6" fill="none" stroke-width="2"></path></g><g transform="translate(505 398)"><path d="M0 -8L7.6 -2.5L4.7 6.5L-4.7 6.5L-7.6 -2.5Z" stroke="#297EA6" fill="none" stroke-width="2"></path></g><g transform="translate(509 12)"><path d="M0 -10L9.5 -3.1L5.9 8.1L-5.9 8.1L-9.5 -3.1Z" stroke="#297EA6" fill="none" stroke-width="2"></path></g><g transform="translate(895 467)"><path d="M0 -9L8.6 -2.8L5.3 7.3L-5.3 7.3L-8.6 -2.8Z" stroke="#297EA6" fill="none" stroke-width="2"></path></g><g transform="translate(213 316)"><path d="M0 -8L7.6 -2.5L4.7 6.5L-4.7 6.5L-7.6 -2.5Z" stroke="#297EA6" fill="none" stroke-width="2"></path></g><g transform="translate(722 493)"><path d="M0 -6L5.7 -1.9L3.5 4.9L-3.5 4.9L-5.7 -1.9Z" stroke="#297EA6" fill="none" stroke-width="2"></path></g><g transform="translate(533 401)"><path d="M0 -10L9.5 -3.1L5.9 8.1L-5.9 8.1L-9.5 -3.1Z" stroke="#297EA6" fill="none" stroke-width="2"></path></g><g transform="translate(13 108)"><path d="M0 -7L6.7 -2.2L4.1 5.7L-4.1 5.7L-6.7 -2.2Z" stroke="#297EA6" fill="none" stroke-width="2"></path></g><g transform="translate(96 512)"><path d="M0 -9L8.6 -2.8L5.3 7.3L-5.3 7.3L-8.6 -2.8Z" stroke="#297EA6" fill="none" stroke-width="2"></path></g><g transform="translate(673 420)"><path d="M0 -11L10.5 -3.4L6.5 8.9L-6.5 8.9L-10.5 -3.4Z" stroke="#297EA6" fill="none" stroke-width="2"></path></g><g transform="translate(868 494)"><path d="M0 -8L7.6 -2.5L4.7 6.5L-4.7 6.5L-7.6 -2.5Z" stroke="#297EA6" fill="none" stroke-width="2"></path></g><g transform="translate(740 68)"><path d="M0 -6L5.7 -1.9L3.5 4.9L-3.5 4.9L-5.7 -1.9Z" stroke="#297EA6" fill="none" stroke-width="2"></path></g><g transform="translate(2 253)"><path d="M0 -12L11.4 -3.7L7.1 9.7L-7.1 9.7L-11.4 -3.7Z" stroke="#297EA6" fill="none" stroke-width="2"></path></g><g transform="translate(338 82)"><path d="M0 -10L9.5 -3.1L5.9 8.1L-5.9 8.1L-9.5 -3.1Z" stroke="#297EA6" fill="none" stroke-width="2"></path></g><g transform="translate(340 365)"><path d="M0 -10L9.5 -3.1L5.9 8.1L-5.9 8.1L-9.5 -3.1Z" stroke="#297EA6" fill="none" stroke-width="2"></path></g><g transform="translate(538 599)"><path d="M0 -6L5.7 -1.9L3.5 4.9L-3.5 4.9L-5.7 -1.9Z" stroke="#297EA6" fill="none" stroke-width="2"></path></g><g transform="translate(616 173)"><path d="M0 -9L8.6 -2.8L5.3 7.3L-5.3 7.3L-8.6 -2.8Z" stroke="#297EA6" fill="none" stroke-width="2"></path></g><g transform="translate(669 76)"><path d="M0 -10L9.5 -3.1L5.9 8.1L-5.9 8.1L-9.5 -3.1Z" stroke="#297EA6" fill="none" stroke-width="2"></path></g><g transform="translate(204 56)"><path d="M0 -12L11.4 -3.7L7.1 9.7L-7.1 9.7L-11.4 -3.7Z" stroke="#297EA6" fill="none" stroke-width="2"></path></g><g transform="translate(766 342)"><path d="M0 -6L5.7 -1.9L3.5 4.9L-3.5 4.9L-5.7 -1.9Z" stroke="#297EA6" fill="none" stroke-width="2"></path></g><g transform="translate(515 307)"><path d="M0 -10L9.5 -3.1L5.9 8.1L-5.9 8.1L-9.5 -3.1Z" stroke="#297EA6" fill="none" stroke-width="2"></path></g><g transform="translate(168 531)"><path d="M0 -9L8.6 -2.8L5.3 7.3L-5.3 7.3L-8.6 -2.8Z" stroke="#297EA6" fill="none" stroke-width="2"></path></g><g transform="translate(553 160)"><path d="M0 -10L9.5 -3.1L5.9 8.1L-5.9 8.1L-9.5 -3.1Z" stroke="#297EA6" fill="none" stroke-width="2"></path></g><g transform="translate(360 135)"><path d="M0 -6L5.7 -1.9L3.5 4.9L-3.5 4.9L-5.7 -1.9Z" stroke="#297EA6" fill="none" stroke-width="2"></path></g><g transform="translate(543 266)"><path d="M0 -8L7.6 -2.5L4.7 6.5L-4.7 6.5L-7.6 -2.5Z" stroke="#297EA6" fill="none" stroke-width="2"></path></g><g transform="translate(586 315)"><path d="M0 -6L5.7 -1.9L3.5 4.9L-3.5 4.9L-5.7 -1.9Z" stroke="#297EA6" fill="none" stroke-width="2"></path></g><g transform="translate(463 251)"><path d="M0 -10L9.5 -3.1L5.9 8.1L-5.9 8.1L-9.5 -3.1Z" stroke="#297EA6" fill="none" stroke-width="2"></path></g><g transform="translate(138 395)"><path d="M0 -12L11.4 -3.7L7.1 9.7L-7.1 9.7L-11.4 -3.7Z" stroke="#297EA6" fill="none" stroke-width="2"></path></g><g transform="translate(62 129)"><path d="M0 -6L5.7 -1.9L3.5 4.9L-3.5 4.9L-5.7 -1.9Z" stroke="#297EA6" fill="none" stroke-width="2"></path></g><g transform="translate(408 277)"><path d="M0 -7L6.7 -2.2L4.1 5.7L-4.1 5.7L-6.7 -2.2Z" stroke="#297EA6" fill="none" stroke-width="2"></path></g><g transform="translate(434 507)"><path d="M0 -11L10.5 -3.4L6.5 8.9L-6.5 8.9L-10.5 -3.4Z" stroke="#297EA6" fill="none" stroke-width="2"></path></g><g transform="translate(679 244)"><path d="M0 -11L10.5 -3.4L6.5 8.9L-6.5 8.9L-10.5 -3.4Z" stroke="#297EA6" fill="none" stroke-width="2"></path></g><g transform="translate(792 472)"><path d="M0 -9L8.6 -2.8L5.3 7.3L-5.3 7.3L-8.6 -2.8Z" stroke="#297EA6" fill="none" stroke-width="2"></path></g><g transform="translate(828 527)"><path d="M0 -7L6.7 -2.2L4.1 5.7L-4.1 5.7L-6.7 -2.2Z" stroke="#297EA6" fill="none" stroke-width="2"></path></g><g transform="translate(451 351)"><path d="M0 -10L9.5 -3.1L5.9 8.1L-5.9 8.1L-9.5 -3.1Z" stroke="#297EA6" fill="none" stroke-width="2"></path></g><g transform="translate(550 455)"><path d="M0 -8L7.6 -2.5L4.7 6.5L-4.7 6.5L-7.6 -2.5Z" stroke="#297EA6" fill="none" stroke-width="2"></path></g><g transform="translate(690 200)"><path d="M0 -12L11.4 -3.7L7.1 9.7L-7.1 9.7L-11.4 -3.7Z" stroke="#297EA6" fill="none" stroke-width="2"></path></g><g transform="translate(494 209)"><path d="M0 -12L11.4 -3.7L7.1 9.7L-7.1 9.7L-11.4 -3.7Z" stroke="#297EA6" fill="none" stroke-width="2"></path></g><g transform="translate(318 383)"><path d="M0 -9L8.6 -2.8L5.3 7.3L-5.3 7.3L-8.6 -2.8Z" stroke="#297EA6" fill="none" stroke-width="2"></path></g><g transform="translate(78 156)"><path d="M0 -11L10.5 -3.4L6.5 8.9L-6.5 8.9L-10.5 -3.4Z" stroke="#297EA6" fill="none" stroke-width="2"></path></g><g transform="translate(238 286)"><path d="M0 -9L8.6 -2.8L5.3 7.3L-5.3 7.3L-8.6 -2.8Z" stroke="#297EA6" fill="none" stroke-width="2"></path></g><g transform="translate(487 235)"><path d="M0 -11L10.5 -3.4L6.5 8.9L-6.5 8.9L-10.5 -3.4Z" stroke="#297EA6" fill="none" stroke-width="2"></path></g><g transform="translate(540 126)"><path d="M0 -7L6.7 -2.2L4.1 5.7L-4.1 5.7L-6.7 -2.2Z" stroke="#297EA6" fill="none" stroke-width="2"></path></g><g transform="translate(666 186)"><path d="M0 -7L6.7 -2.2L4.1 5.7L-4.1 5.7L-6.7 -2.2Z" stroke="#297EA6" fill="none" stroke-width="2"></path></g><g transform="translate(818 594)"><path d="M0 -6L5.7 -1.9L3.5 4.9L-3.5 4.9L-5.7 -1.9Z" stroke="#297EA6" fill="none" stroke-width="2"></path></g><g transform="translate(472 378)"><path d="M0 -10L9.5 -3.1L5.9 8.1L-5.9 8.1L-9.5 -3.1Z" stroke="#297EA6" fill="none" stroke-width="2"></path></g><g transform="translate(836 571)"><path d="M0 -9L8.6 -2.8L5.3 7.3L-5.3 7.3L-8.6 -2.8Z" stroke="#297EA6" fill="none" stroke-width="2"></path></g><g transform="translate(780 247)"><path d="M0 -9L8.6 -2.8L5.3 7.3L-5.3 7.3L-8.6 -2.8Z" stroke="#297EA6" fill="none" stroke-width="2"></path></g><g transform="translate(87 408)"><path d="M0 -11L10.5 -3.4L6.5 8.9L-6.5 8.9L-10.5 -3.4Z" stroke="#297EA6" fill="none" stroke-width="2"></path></g><g transform="translate(53 436)"><path d="M0 -7L6.7 -2.2L4.1 5.7L-4.1 5.7L-6.7 -2.2Z" stroke="#297EA6" fill="none" stroke-width="2"></path></g><g transform="translate(81 561)"><path d="M0 -12L11.4 -3.7L7.1 9.7L-7.1 9.7L-11.4 -3.7Z" stroke="#297EA6" fill="none" stroke-width="2"></path></g><g transform="translate(616 261)"><path d="M0 -9L8.6 -2.8L5.3 7.3L-5.3 7.3L-8.6 -2.8Z" stroke="#297EA6" fill="none" stroke-width="2"></path></g><g transform="translate(396 314)"><path d="M0 -7L6.7 -2.2L4.1 5.7L-4.1 5.7L-6.7 -2.2Z" stroke="#297EA6" fill="none" stroke-width="2"></path></g><g transform="translate(670 273)"><path d="M0 -11L10.5 -3.4L6.5 8.9L-6.5 8.9L-10.5 -3.4Z" stroke="#297EA6" fill="none" stroke-width="2"></path></g><g transform="translate(516 234)"><path d="M0 -7L6.7 -2.2L4.1 5.7L-4.1 5.7L-6.7 -2.2Z" stroke="#297EA6" fill="none" stroke-width="2"></path></g><g transform="translate(349 391)"><path d="M0 -6L5.7 -1.9L3.5 4.9L-3.5 4.9L-5.7 -1.9Z" stroke="#297EA6" fill="none" stroke-width="2"></path></g><g transform="translate(291 383)"><path d="M0 -8L7.6 -2.5L4.7 6.5L-4.7 6.5L-7.6 -2.5Z" stroke="#297EA6" fill="none" stroke-width="2"></path></g><g transform="translate(97 207)"><path d="M0 -10L9.5 -3.1L5.9 8.1L-5.9 8.1L-9.5 -3.1Z" stroke="#297EA6" fill="none" stroke-width="2"></path></g><g transform="translate(895 251)"><path d="M0 -11L10.5 -3.4L6.5 8.9L-6.5 8.9L-10.5 -3.4Z" stroke="#297EA6" fill="none" stroke-width="2"></path></g><g transform="translate(899 69)"><path d="M0 -12L11.4 -3.7L7.1 9.7L-7.1 9.7L-11.4 -3.7Z" stroke="#297EA6" fill="none" stroke-width="2"></path></g><g transform="translate(548 36)"><path d="M0 -8L7.6 -2.5L4.7 6.5L-4.7 6.5L-7.6 -2.5Z" stroke="#297EA6" fill="none" stroke-width="2"></path></g><g transform="translate(173 222)"><path d="M0 -8L7.6 -2.5L4.7 6.5L-4.7 6.5L-7.6 -2.5Z" stroke="#297EA6" fill="none" stroke-width="2"></path></g><g transform="translate(551 238)"><path d="M0 -10L9.5 -3.1L5.9 8.1L-5.9 8.1L-9.5 -3.1Z" stroke="#297EA6" fill="none" stroke-width="2"></path></g><g transform="translate(323 458)"><path d="M0 -11L10.5 -3.4L6.5 8.9L-6.5 8.9L-10.5 -3.4Z" stroke="#297EA6" fill="none" stroke-width="2"></path></g><g transform="translate(817 8)"><path d="M0 -6L5.7 -1.9L3.5 4.9L-3.5 4.9L-5.7 -1.9Z" stroke="#297EA6" fill="none" stroke-width="2"></path></g><g transform="translate(755 170)"><path d="M0 -6L5.7 -1.9L3.5 4.9L-3.5 4.9L-5.7 -1.9Z" stroke="#297EA6" fill="none" stroke-width="2"></path></g><g transform="translate(439 176)"><path d="M0 -12L11.4 -3.7L7.1 9.7L-7.1 9.7L-11.4 -3.7Z" stroke="#297EA6" fill="none" stroke-width="2"></path></g><g transform="translate(150 186)"><path d="M0 -11L10.5 -3.4L6.5 8.9L-6.5 8.9L-10.5 -3.4Z" stroke="#297EA6" fill="none" stroke-width="2"></path></g><g transform="translate(723 530)"><path d="M0 -8L7.6 -2.5L4.7 6.5L-4.7 6.5L-7.6 -2.5Z" stroke="#297EA6" fill="none" stroke-width="2"></path></g><g transform="translate(588 235)"><path d="M0 -12L11.4 -3.7L7.1 9.7L-7.1 9.7L-11.4 -3.7Z" stroke="#297EA6" fill="none" stroke-width="2"></path></g><g transform="translate(780 530)"><path d="M0 -11L10.5 -3.4L6.5 8.9L-6.5 8.9L-10.5 -3.4Z" stroke="#297EA6" fill="none" stroke-width="2"></path></g><g transform="translate(385 9)"><path d="M0 -7L6.7 -2.2L4.1 5.7L-4.1 5.7L-6.7 -2.2Z" stroke="#297EA6" fill="none" stroke-width="2"></path></g><g transform="translate(196 260)"><path d="M0 -6L5.7 -1.9L3.5 4.9L-3.5 4.9L-5.7 -1.9Z" stroke="#297EA6" fill="none" stroke-width="2"></path></g><g transform="translate(268 497)"><path d="M0 -6L5.7 -1.9L3.5 4.9L-3.5 4.9L-5.7 -1.9Z" stroke="#297EA6" fill="none" stroke-width="2"></path></g><g transform="translate(774 88)"><path d="M0 -9L8.6 -2.8L5.3 7.3L-5.3 7.3L-8.6 -2.8Z" stroke="#297EA6" fill="none" stroke-width="2"></path></g><g transform="translate(162 15)"><path d="M0 -10L9.5 -3.1L5.9 8.1L-5.9 8.1L-9.5 -3.1Z" stroke="#297EA6" fill="none" stroke-width="2"></path></g><g transform="translate(693 133)"><path d="M0 -11L10.5 -3.4L6.5 8.9L-6.5 8.9L-10.5 -3.4Z" stroke="#297EA6" fill="none" stroke-width="2"></path></g><g transform="translate(743 425)"><path d="M0 -9L8.6 -2.8L5.3 7.3L-5.3 7.3L-8.6 -2.8Z" stroke="#297EA6" fill="none" stroke-width="2"></path></g><g transform="translate(44 471)"><path d="M0 -8L7.6 -2.5L4.7 6.5L-4.7 6.5L-7.6 -2.5Z" stroke="#297EA6" fill="none" stroke-width="2"></path></g><g transform="translate(145 77)"><path d="M0 -11L10.5 -3.4L6.5 8.9L-6.5 8.9L-10.5 -3.4Z" stroke="#297EA6" fill="none" stroke-width="2"></path></g><g transform="translate(155 294)"><path d="M0 -7L6.7 -2.2L4.1 5.7L-4.1 5.7L-6.7 -2.2Z" stroke="#297EA6" fill="none" stroke-width="2"></path></g><g transform="translate(422 536)"><path d="M0 -9L8.6 -2.8L5.3 7.3L-5.3 7.3L-8.6 -2.8Z" stroke="#297EA6" fill="none" stroke-width="2"></path></g><g transform="translate(165 335)"><path d="M0 -9L8.6 -2.8L5.3 7.3L-5.3 7.3L-8.6 -2.8Z" stroke="#297EA6" fill="none" stroke-width="2"></path></g><g transform="translate(876 304)"><path d="M0 -12L11.4 -3.7L7.1 9.7L-7.1 9.7L-11.4 -3.7Z" stroke="#297EA6" fill="none" stroke-width="2"></path></g><g transform="translate(577 350)"><path d="M0 -7L6.7 -2.2L4.1 5.7L-4.1 5.7L-6.7 -2.2Z" stroke="#297EA6" fill="none" stroke-width="2"></path></g><g transform="translate(75 372)"><path d="M0 -9L8.6 -2.8L5.3 7.3L-5.3 7.3L-8.6 -2.8Z" stroke="#297EA6" fill="none" stroke-width="2"></path></g><g transform="translate(500 364)"><path d="M0 -9L8.6 -2.8L5.3 7.3L-5.3 7.3L-8.6 -2.8Z" stroke="#297EA6" fill="none" stroke-width="2"></path></g><g transform="translate(48 559)"><path d="M0 -6L5.7 -1.9L3.5 4.9L-3.5 4.9L-5.7 -1.9Z" stroke="#297EA6" fill="none" stroke-width="2"></path></g><g transform="translate(455 488)"><path d="M0 -8L7.6 -2.5L4.7 6.5L-4.7 6.5L-7.6 -2.5Z" stroke="#297EA6" fill="none" stroke-width="2"></path></g><g transform="translate(5 225)"><path d="M0 -6L5.7 -1.9L3.5 4.9L-3.5 4.9L-5.7 -1.9Z" stroke="#297EA6" fill="none" stroke-width="2"></path></g><g transform="translate(34 497)"><path d="M0 -9L8.6 -2.8L5.3 7.3L-5.3 7.3L-8.6 -2.8Z" stroke="#297EA6" fill="none" stroke-width="2"></path></g><g transform="translate(487 555)"><path d="M0 -8L7.6 -2.5L4.7 6.5L-4.7 6.5L-7.6 -2.5Z" stroke="#297EA6" fill="none" stroke-width="2"></path></g><g transform="translate(586 180)"><path d="M0 -12L11.4 -3.7L7.1 9.7L-7.1 9.7L-11.4 -3.7Z" stroke="#297EA6" fill="none" stroke-width="2"></path></g><g transform="translate(326 132)"><path d="M0 -10L9.5 -3.1L5.9 8.1L-5.9 8.1L-9.5 -3.1Z" stroke="#297EA6" fill="none" stroke-width="2"></path></g><g transform="translate(893 405)"><path d="M0 -10L9.5 -3.1L5.9 8.1L-5.9 8.1L-9.5 -3.1Z" stroke="#297EA6" fill="none" stroke-width="2"></path></g><g transform="translate(8 137)"><path d="M0 -7L6.7 -2.2L4.1 5.7L-4.1 5.7L-6.7 -2.2Z" stroke="#297EA6" fill="none" stroke-width="2"></path></g><g transform="translate(570 502)"><path d="M0 -8L7.6 -2.5L4.7 6.5L-4.7 6.5L-7.6 -2.5Z" stroke="#297EA6" fill="none" stroke-width="2"></path></g><g transform="translate(405 592)"><path d="M0 -9L8.6 -2.8L5.3 7.3L-5.3 7.3L-8.6 -2.8Z" stroke="#297EA6" fill="none" stroke-width="2"></path></g><g transform="translate(28 331)"><path d="M0 -9L8.6 -2.8L5.3 7.3L-5.3 7.3L-8.6 -2.8Z" stroke="#297EA6" fill="none" stroke-width="2"></path></g><g transform="translate(629 38)"><path d="M0 -8L7.6 -2.5L4.7 6.5L-4.7 6.5L-7.6 -2.5Z" stroke="#297EA6" fill="none" stroke-width="2"></path></g><g transform="translate(376 576)"><path d="M0 -6L5.7 -1.9L3.5 4.9L-3.5 4.9L-5.7 -1.9Z" stroke="#297EA6" fill="none" stroke-width="2"></path></g><g transform="translate(711 415)"><path d="M0 -11L10.5 -3.4L6.5 8.9L-6.5 8.9L-10.5 -3.4Z" stroke="#297EA6" fill="none" stroke-width="2"></path></g><g transform="translate(709 340)"><path d="M0 -10L9.5 -3.1L5.9 8.1L-5.9 8.1L-9.5 -3.1Z" stroke="#297EA6" fill="none" stroke-width="2"></path></g><g transform="translate(786 155)"><path d="M0 -10L9.5 -3.1L5.9 8.1L-5.9 8.1L-9.5 -3.1Z" stroke="#297EA6" fill="none" stroke-width="2"></path></g><g transform="translate(281 318)"><path d="M0 -9L8.6 -2.8L5.3 7.3L-5.3 7.3L-8.6 -2.8Z" stroke="#297EA6" fill="none" stroke-width="2"></path></g><g transform="translate(93 87)"><path d="M0 -9L8.6 -2.8L5.3 7.3L-5.3 7.3L-8.6 -2.8Z" stroke="#297EA6" fill="none" stroke-width="2"></path></g><g transform="translate(554 565)"><path d="M0 -10L9.5 -3.1L5.9 8.1L-5.9 8.1L-9.5 -3.1Z" stroke="#297EA6" fill="none" stroke-width="2"></path></g><g transform="translate(151 554)"><path d="M0 -7L6.7 -2.2L4.1 5.7L-4.1 5.7L-6.7 -2.2Z" stroke="#297EA6" fill="none" stroke-width="2"></path></g><g transform="translate(272 87)"><path d="M0 -12L11.4 -3.7L7.1 9.7L-7.1 9.7L-11.4 -3.7Z" stroke="#297EA6" fill="none" stroke-width="2"></path></g><g transform="translate(387 434)"><path d="M0 -11L10.5 -3.4L6.5 8.9L-6.5 8.9L-10.5 -3.4Z" stroke="#297EA6" fill="none" stroke-width="2"></path></g><g transform="translate(301 297)"><path d="M0 -7L6.7 -2.2L4.1 5.7L-4.1 5.7L-6.7 -2.2Z" stroke="#297EA6" fill="none" stroke-width="2"></path></g><g transform="translate(425 410)"><path d="M0 -8L7.6 -2.5L4.7 6.5L-4.7 6.5L-7.6 -2.5Z" stroke="#297EA6" fill="none" stroke-width="2"></path></g><g transform="translate(705 594)"><path d="M0 -9L8.6 -2.8L5.3 7.3L-5.3 7.3L-8.6 -2.8Z" stroke="#297EA6" fill="none" stroke-width="2"></path></g><g transform="translate(333 263)"><path d="M0 -12L11.4 -3.7L7.1 9.7L-7.1 9.7L-11.4 -3.7Z" stroke="#297EA6" fill="none" stroke-width="2"></path></g><g transform="translate(269 543)"><path d="M0 -10L9.5 -3.1L5.9 8.1L-5.9 8.1L-9.5 -3.1Z" stroke="#297EA6" fill="none" stroke-width="2"></path></g><g transform="translate(104 21)"><path d="M0 -10L9.5 -3.1L5.9 8.1L-5.9 8.1L-9.5 -3.1Z" stroke="#297EA6" fill="none" stroke-width="2"></path></g><g transform="translate(608 511)"><path d="M0 -8L7.6 -2.5L4.7 6.5L-4.7 6.5L-7.6 -2.5Z" stroke="#297EA6" fill="none" stroke-width="2"></path></g><g transform="translate(252 244)"><path d="M0 -6L5.7 -1.9L3.5 4.9L-3.5 4.9L-5.7 -1.9Z" stroke="#297EA6" fill="none" stroke-width="2"></path></g><g transform="translate(67 596)"><path d="M0 -10L9.5 -3.1L5.9 8.1L-5.9 8.1L-9.5 -3.1Z" stroke="#297EA6" fill="none" stroke-width="2"></path></g><g transform="translate(859 590)"><path d="M0 -11L10.5 -3.4L6.5 8.9L-6.5 8.9L-10.5 -3.4Z" stroke="#297EA6" fill="none" stroke-width="2"></path></g><g transform="translate(3 74)"><path d="M0 -6L5.7 -1.9L3.5 4.9L-3.5 4.9L-5.7 -1.9Z" stroke="#297EA6" fill="none" stroke-width="2"></path></g><g transform="translate(519 42)"><path d="M0 -6L5.7 -1.9L3.5 4.9L-3.5 4.9L-5.7 -1.9Z" stroke="#297EA6" fill="none" stroke-width="2"></path></g><g transform="translate(268 11)"><path d="M0 -12L11.4 -3.7L7.1 9.7L-7.1 9.7L-11.4 -3.7Z" stroke="#297EA6" fill="none" stroke-width="2"></path></g><g transform="translate(749 114)"><path d="M0 -7L6.7 -2.2L4.1 5.7L-4.1 5.7L-6.7 -2.2Z" stroke="#297EA6" fill="none" stroke-width="2"></path></g><g transform="translate(546 4)"><path d="M0 -12L11.4 -3.7L7.1 9.7L-7.1 9.7L-11.4 -3.7Z" stroke="#297EA6" fill="none" stroke-width="2"></path></g><g transform="translate(765 196)"><path d="M0 -12L11.4 -3.7L7.1 9.7L-7.1 9.7L-11.4 -3.7Z" stroke="#297EA6" fill="none" stroke-width="2"></path></g><g transform="translate(788 502)"><path d="M0 -8L7.6 -2.5L4.7 6.5L-4.7 6.5L-7.6 -2.5Z" stroke="#297EA6" fill="none" stroke-width="2"></path></g><g transform="translate(691 2)"><path d="M0 -6L5.7 -1.9L3.5 4.9L-3.5 4.9L-5.7 -1.9Z" stroke="#297EA6" fill="none" stroke-width="2"></path></g><g transform="translate(223 415)"><path d="M0 -12L11.4 -3.7L7.1 9.7L-7.1 9.7L-11.4 -3.7Z" stroke="#297EA6" fill="none" stroke-width="2"></path></g><g transform="translate(475 328)"><path d="M0 -7L6.7 -2.2L4.1 5.7L-4.1 5.7L-6.7 -2.2Z" stroke="#297EA6" fill="none" stroke-width="2"></path></g><g transform="translate(25 269)"><path d="M0 -6L5.7 -1.9L3.5 4.9L-3.5 4.9L-5.7 -1.9Z" stroke="#297EA6" fill="none" stroke-width="2"></path></g><g transform="translate(95 596)"><path d="M0 -12L11.4 -3.7L7.1 9.7L-7.1 9.7L-11.4 -3.7Z" stroke="#297EA6" fill="none" stroke-width="2"></path></g><g transform="translate(619 6)"><path d="M0 -12L11.4 -3.7L7.1 9.7L-7.1 9.7L-11.4 -3.7Z" stroke="#297EA6" fill="none" stroke-width="2"></path></g><g transform="translate(555 211)"><path d="M0 -8L7.6 -2.5L4.7 6.5L-4.7 6.5L-7.6 -2.5Z" stroke="#297EA6" fill="none" stroke-width="2"></path></g><g transform="translate(647 551)"><path d="M0 -11L10.5 -3.4L6.5 8.9L-6.5 8.9L-10.5 -3.4Z" stroke="#297EA6" fill="none" stroke-width="2"></path></g><g transform="translate(518 434)"><path d="M0 -11L10.5 -3.4L6.5 8.9L-6.5 8.9L-10.5 -3.4Z" stroke="#297EA6" fill="none" stroke-width="2"></path></g><g transform="translate(763 302)"><path d="M0 -12L11.4 -3.7L7.1 9.7L-7.1 9.7L-11.4 -3.7Z" stroke="#297EA6" fill="none" stroke-width="2"></path></g><g transform="translate(593 95)"><path d="M0 -11L10.5 -3.4L6.5 8.9L-6.5 8.9L-10.5 -3.4Z" stroke="#297EA6" fill="none" stroke-width="2"></path></g><g transform="translate(709 70)"><path d="M0 -12L11.4 -3.7L7.1 9.7L-7.1 9.7L-11.4 -3.7Z" stroke="#297EA6" fill="none" stroke-width="2"></path></g><g transform="translate(141 214)"><path d="M0 -12L11.4 -3.7L7.1 9.7L-7.1 9.7L-11.4 -3.7Z" stroke="#297EA6" fill="none" stroke-width="2"></path></g><g transform="translate(162 411)"><path d="M0 -10L9.5 -3.1L5.9 8.1L-5.9 8.1L-9.5 -3.1Z" stroke="#297EA6" fill="none" stroke-width="2"></path></g><g transform="translate(667 520)"><path d="M0 -10L9.5 -3.1L5.9 8.1L-5.9 8.1L-9.5 -3.1Z" stroke="#297EA6" fill="none" stroke-width="2"></path></g><g transform="translate(232 595)"><path d="M0 -7L6.7 -2.2L4.1 5.7L-4.1 5.7L-6.7 -2.2Z" stroke="#297EA6" fill="none" stroke-width="2"></path></g><g transform="translate(832 215)"><path d="M0 -10L9.5 -3.1L5.9 8.1L-5.9 8.1L-9.5 -3.1Z" stroke="#297EA6" fill="none" stroke-width="2"></path></g><g transform="translate(690 98)"><path d="M0 -11L10.5 -3.4L6.5 8.9L-6.5 8.9L-10.5 -3.4Z" stroke="#297EA6" fill="none" stroke-width="2"></path></g><g transform="translate(278 598)"><path d="M0 -9L8.6 -2.8L5.3 7.3L-5.3 7.3L-8.6 -2.8Z" stroke="#297EA6" fill="none" stroke-width="2"></path></g><g transform="translate(894 325)"><path d="M0 -7L6.7 -2.2L4.1 5.7L-4.1 5.7L-6.7 -2.2Z" stroke="#297EA6" fill="none" stroke-width="2"></path></g><g transform="translate(450 316)"><path d="M0 -9L8.6 -2.8L5.3 7.3L-5.3 7.3L-8.6 -2.8Z" stroke="#297EA6" fill="none" stroke-width="2"></path></g><g transform="translate(743 598)"><path d="M0 -6L5.7 -1.9L3.5 4.9L-3.5 4.9L-5.7 -1.9Z" stroke="#297EA6" fill="none" stroke-width="2"></path></g><g transform="translate(732 227)"><path d="M0 -8L7.6 -2.5L4.7 6.5L-4.7 6.5L-7.6 -2.5Z" stroke="#297EA6" fill="none" stroke-width="2"></path></g><g transform="translate(865 6)"><path d="M0 -8L7.6 -2.5L4.7 6.5L-4.7 6.5L-7.6 -2.5Z" stroke="#297EA6" fill="none" stroke-width="2"></path></g><g transform="translate(681 546)"><path d="M0 -7L6.7 -2.2L4.1 5.7L-4.1 5.7L-6.7 -2.2Z" stroke="#297EA6" fill="none" stroke-width="2"></path></g><g transform="translate(406 474)"><path d="M0 -11L10.5 -3.4L6.5 8.9L-6.5 8.9L-10.5 -3.4Z" stroke="#297EA6" fill="none" stroke-width="2"></path></g><g transform="translate(41 41)"><path d="M0 -7L6.7 -2.2L4.1 5.7L-4.1 5.7L-6.7 -2.2Z" stroke="#297EA6" fill="none" stroke-width="2"></path></g><g transform="translate(379 158)"><path d="M0 -8L7.6 -2.5L4.7 6.5L-4.7 6.5L-7.6 -2.5Z" stroke="#297EA6" fill="none" stroke-width="2"></path></g><g transform="translate(435 40)"><path d="M0 -12L11.4 -3.7L7.1 9.7L-7.1 9.7L-11.4 -3.7Z" stroke="#297EA6" fill="none" stroke-width="2"></path></g><g transform="translate(243 163)"><path d="M0 -12L11.4 -3.7L7.1 9.7L-7.1 9.7L-11.4 -3.7Z" stroke="#297EA6" fill="none" stroke-width="2"></path></g><g transform="translate(853 318)"><path d="M0 -9L8.6 -2.8L5.3 7.3L-5.3 7.3L-8.6 -2.8Z" stroke="#297EA6" fill="none" stroke-width="2"></path></g><g transform="translate(436 584)"><path d="M0 -7L6.7 -2.2L4.1 5.7L-4.1 5.7L-6.7 -2.2Z" stroke="#297EA6" fill="none" stroke-width="2"></path></g><g transform="translate(128 247)"><path d="M0 -12L11.4 -3.7L7.1 9.7L-7.1 9.7L-11.4 -3.7Z" stroke="#297EA6" fill="none" stroke-width="2"></path></g><g transform="translate(548 377)"><path d="M0 -9L8.6 -2.8L5.3 7.3L-5.3 7.3L-8.6 -2.8Z" stroke="#297EA6" fill="none" stroke-width="2"></path></g><g transform="translate(651 596)"><path d="M0 -10L9.5 -3.1L5.9 8.1L-5.9 8.1L-9.5 -3.1Z" stroke="#297EA6" fill="none" stroke-width="2"></path></g><g transform="translate(140 520)"><path d="M0 -10L9.5 -3.1L5.9 8.1L-5.9 8.1L-9.5 -3.1Z" stroke="#297EA6" fill="none" stroke-width="2"></path></g><g transform="translate(869 93)"><path d="M0 -8L7.6 -2.5L4.7 6.5L-4.7 6.5L-7.6 -2.5Z" stroke="#297EA6" fill="none" stroke-width="2"></path></g><g transform="translate(519 103)"><path d="M0 -10L9.5 -3.1L5.9 8.1L-5.9 8.1L-9.5 -3.1Z" stroke="#297EA6" fill="none" stroke-width="2"></path></g><g transform="translate(622 401)"><path d="M0 -9L8.6 -2.8L5.3 7.3L-5.3 7.3L-8.6 -2.8Z" stroke="#297EA6" fill="none" stroke-width="2"></path></g><g transform="translate(67 309)"><path d="M0 -7L6.7 -2.2L4.1 5.7L-4.1 5.7L-6.7 -2.2Z" stroke="#297EA6" fill="none" stroke-width="2"></path></g><g transform="translate(3 310)"><path d="M0 -6L5.7 -1.9L3.5 4.9L-3.5 4.9L-5.7 -1.9Z" stroke="#297EA6" fill="none" stroke-width="2"></path></g><g transform="translate(95 346)"><path d="M0 -8L7.6 -2.5L4.7 6.5L-4.7 6.5L-7.6 -2.5Z" stroke="#297EA6" fill="none" stroke-width="2"></path></g><g transform="translate(314 357)"><path d="M0 -8L7.6 -2.5L4.7 6.5L-4.7 6.5L-7.6 -2.5Z" stroke="#297EA6" fill="none" stroke-width="2"></path></g><g transform="translate(539 320)"><path d="M0 -10L9.5 -3.1L5.9 8.1L-5.9 8.1L-9.5 -3.1Z" stroke="#297EA6" fill="none" stroke-width="2"></path></g><g transform="translate(868 384)"><path d="M0 -6L5.7 -1.9L3.5 4.9L-3.5 4.9L-5.7 -1.9Z" stroke="#297EA6" fill="none" stroke-width="2"></path></g><g transform="translate(186 195)"><path d="M0 -12L11.4 -3.7L7.1 9.7L-7.1 9.7L-11.4 -3.7Z" stroke="#297EA6" fill="none" stroke-width="2"></path></g><g transform="translate(804 408)"><path d="M0 -10L9.5 -3.1L5.9 8.1L-5.9 8.1L-9.5 -3.1Z" stroke="#297EA6" fill="none" stroke-width="2"></path></g><g transform="translate(365 186)"><path d="M0 -8L7.6 -2.5L4.7 6.5L-4.7 6.5L-7.6 -2.5Z" stroke="#297EA6" fill="none" stroke-width="2"></path></g><g transform="translate(247 77)"><path d="M0 -9L8.6 -2.8L5.3 7.3L-5.3 7.3L-8.6 -2.8Z" stroke="#297EA6" fill="none" stroke-width="2"></path></g><g transform="translate(791 16)"><path d="M0 -12L11.4 -3.7L7.1 9.7L-7.1 9.7L-11.4 -3.7Z" stroke="#297EA6" fill="none" stroke-width="2"></path></g><g transform="translate(72 226)"><path d="M0 -7L6.7 -2.2L4.1 5.7L-4.1 5.7L-6.7 -2.2Z" stroke="#297EA6" fill="none" stroke-width="2"></path></g><g transform="translate(775 416)"><path d="M0 -10L9.5 -3.1L5.9 8.1L-5.9 8.1L-9.5 -3.1Z" stroke="#297EA6" fill="none" stroke-width="2"></path></g><g transform="translate(342 337)"><path d="M0 -7L6.7 -2.2L4.1 5.7L-4.1 5.7L-6.7 -2.2Z" stroke="#297EA6" fill="none" stroke-width="2"></path></g><g transform="translate(521 461)"><path d="M0 -11L10.5 -3.4L6.5 8.9L-6.5 8.9L-10.5 -3.4Z" stroke="#297EA6" fill="none" stroke-width="2"></path></g><g transform="translate(618 231)"><path d="M0 -9L8.6 -2.8L5.3 7.3L-5.3 7.3L-8.6 -2.8Z" stroke="#297EA6" fill="none" stroke-width="2"></path></g><g transform="translate(222 386)"><path d="M0 -11L10.5 -3.4L6.5 8.9L-6.5 8.9L-10.5 -3.4Z" stroke="#297EA6" fill="none" stroke-width="2"></path></g><g transform="translate(322 230)"><path d="M0 -7L6.7 -2.2L4.1 5.7L-4.1 5.7L-6.7 -2.2Z" stroke="#297EA6" fill="none" stroke-width="2"></path></g><g transform="translate(227 484)"><path d="M0 -6L5.7 -1.9L3.5 4.9L-3.5 4.9L-5.7 -1.9Z" stroke="#297EA6" fill="none" stroke-width="2"></path></g><g transform="translate(118 67)"><path d="M0 -8L7.6 -2.5L4.7 6.5L-4.7 6.5L-7.6 -2.5Z" stroke="#297EA6" fill="none" stroke-width="2"></path></g><g transform="translate(603 454)"><path d="M0 -9L8.6 -2.8L5.3 7.3L-5.3 7.3L-8.6 -2.8Z" stroke="#297EA6" fill="none" stroke-width="2"></path></g><g transform="translate(808 65)"><path d="M0 -7L6.7 -2.2L4.1 5.7L-4.1 5.7L-6.7 -2.2Z" stroke="#297EA6" fill="none" stroke-width="2"></path></g><g transform="translate(3 515)"><path d="M0 -9L8.6 -2.8L5.3 7.3L-5.3 7.3L-8.6 -2.8Z" stroke="#297EA6" fill="none" stroke-width="2"></path></g><g transform="translate(162 596)"><path d="M0 -12L11.4 -3.7L7.1 9.7L-7.1 9.7L-11.4 -3.7Z" stroke="#297EA6" fill="none" stroke-width="2"></path></g><g transform="translate(386 63)"><path d="M0 -9L8.6 -2.8L5.3 7.3L-5.3 7.3L-8.6 -2.8Z" stroke="#297EA6" fill="none" stroke-width="2"></path></g><g transform="translate(187 555)"><path d="M0 -12L11.4 -3.7L7.1 9.7L-7.1 9.7L-11.4 -3.7Z" stroke="#297EA6" fill="none" stroke-width="2"></path></g><g transform="translate(302 195)"><path d="M0 -10L9.5 -3.1L5.9 8.1L-5.9 8.1L-9.5 -3.1Z" stroke="#297EA6" fill="none" stroke-width="2"></path></g><g transform="translate(68 49)"><path d="M0 -11L10.5 -3.4L6.5 8.9L-6.5 8.9L-10.5 -3.4Z" stroke="#297EA6" fill="none" stroke-width="2"></path></g><g transform="translate(587 553)"><path d="M0 -11L10.5 -3.4L6.5 8.9L-6.5 8.9L-10.5 -3.4Z" stroke="#297EA6" fill="none" stroke-width="2"></path></g><g transform="translate(882 571)"><path d="M0 -11L10.5 -3.4L6.5 8.9L-6.5 8.9L-10.5 -3.4Z" stroke="#297EA6" fill="none" stroke-width="2"></path></g><g transform="translate(653 488)"><path d="M0 -8L7.6 -2.5L4.7 6.5L-4.7 6.5L-7.6 -2.5Z" stroke="#297EA6" fill="none" stroke-width="2"></path></g><g transform="translate(489 86)"><path d="M0 -11L10.5 -3.4L6.5 8.9L-6.5 8.9L-10.5 -3.4Z" stroke="#297EA6" fill="none" stroke-width="2"></path></g><g transform="translate(63 280)"><path d="M0 -7L6.7 -2.2L4.1 5.7L-4.1 5.7L-6.7 -2.2Z" stroke="#297EA6" fill="none" stroke-width="2"></path></g><g transform="translate(179 40)"><path d="M0 -11L10.5 -3.4L6.5 8.9L-6.5 8.9L-10.5 -3.4Z" stroke="#297EA6" fill="none" stroke-width="2"></path></g><g transform="translate(208 29)"><path d="M0 -10L9.5 -3.1L5.9 8.1L-5.9 8.1L-9.5 -3.1Z" stroke="#297EA6" fill="none" stroke-width="2"></path></g><g transform="translate(65 535)"><path d="M0 -11L10.5 -3.4L6.5 8.9L-6.5 8.9L-10.5 -3.4Z" stroke="#297EA6" fill="none" stroke-width="2"></path></g><g transform="translate(130 5)"><path d="M0 -6L5.7 -1.9L3.5 4.9L-3.5 4.9L-5.7 -1.9Z" stroke="#297EA6" fill="none" stroke-width="2"></path></g><g transform="translate(877 50)"><path d="M0 -11L10.5 -3.4L6.5 8.9L-6.5 8.9L-10.5 -3.4Z" stroke="#297EA6" fill="none" stroke-width="2"></path></g><g transform="translate(310 97)"><path d="M0 -11L10.5 -3.4L6.5 8.9L-6.5 8.9L-10.5 -3.4Z" stroke="#297EA6" fill="none" stroke-width="2"></path></g><g transform="translate(399 202)"><path d="M0 -9L8.6 -2.8L5.3 7.3L-5.3 7.3L-8.6 -2.8Z" stroke="#297EA6" fill="none" stroke-width="2"></path></g><g transform="translate(734 400)"><path d="M0 -7L6.7 -2.2L4.1 5.7L-4.1 5.7L-6.7 -2.2Z" stroke="#297EA6" fill="none" stroke-width="2"></path></g><g transform="translate(180 459)"><path d="M0 -11L10.5 -3.4L6.5 8.9L-6.5 8.9L-10.5 -3.4Z" stroke="#297EA6" fill="none" stroke-width="2"></path></g><g transform="translate(641 354)"><path d="M0 -6L5.7 -1.9L3.5 4.9L-3.5 4.9L-5.7 -1.9Z" stroke="#297EA6" fill="none" stroke-width="2"></path></g><g transform="translate(2 584)"><path d="M0 -9L8.6 -2.8L5.3 7.3L-5.3 7.3L-8.6 -2.8Z" stroke="#297EA6" fill="none" stroke-width="2"></path></g><g transform="translate(9 46)"><path d="M0 -11L10.5 -3.4L6.5 8.9L-6.5 8.9L-10.5 -3.4Z" stroke="#297EA6" fill="none" stroke-width="2"></path></g><g transform="translate(458 222)"><path d="M0 -6L5.7 -1.9L3.5 4.9L-3.5 4.9L-5.7 -1.9Z" stroke="#297EA6" fill="none" stroke-width="2"></path></g><g transform="translate(370 486)"><path d="M0 -8L7.6 -2.5L4.7 6.5L-4.7 6.5L-7.6 -2.5Z" stroke="#297EA6" fill="none" stroke-width="2"></path></g><g transform="translate(127 454)"><path d="M0 -8L7.6 -2.5L4.7 6.5L-4.7 6.5L-7.6 -2.5Z" stroke="#297EA6" fill="none" stroke-width="2"></path></g><g transform="translate(567 114)"><path d="M0 -6L5.7 -1.9L3.5 4.9L-3.5 4.9L-5.7 -1.9Z" stroke="#297EA6" fill="none" stroke-width="2"></path></g><g transform="translate(529 202)"><path d="M0 -12L11.4 -3.7L7.1 9.7L-7.1 9.7L-11.4 -3.7Z" stroke="#297EA6" fill="none" stroke-width="2"></path></g><g transform="translate(353 6)"><path d="M0 -8L7.6 -2.5L4.7 6.5L-4.7 6.5L-7.6 -2.5Z" stroke="#297EA6" fill="none" stroke-width="2"></path></g><g transform="translate(765 3)"><path d="M0 -10L9.5 -3.1L5.9 8.1L-5.9 8.1L-9.5 -3.1Z" stroke="#297EA6" fill="none" stroke-width="2"></path></g><g transform="translate(674 42)"><path d="M0 -11L10.5 -3.4L6.5 8.9L-6.5 8.9L-10.5 -3.4Z" stroke="#297EA6" fill="none" stroke-width="2"></path></g><g transform="translate(898 437)"><path d="M0 -12L11.4 -3.7L7.1 9.7L-7.1 9.7L-11.4 -3.7Z" stroke="#297EA6" fill="none" stroke-width="2"></path></g><g transform="translate(845 366)"><path d="M0 -10L9.5 -3.1L5.9 8.1L-5.9 8.1L-9.5 -3.1Z" stroke="#297EA6" fill="none" stroke-width="2"></path></g><g transform="translate(569 474)"><path d="M0 -9L8.6 -2.8L5.3 7.3L-5.3 7.3L-8.6 -2.8Z" stroke="#297EA6" fill="none" stroke-width="2"></path></g><g transform="translate(793 356)"><path d="M0 -10L9.5 -3.1L5.9 8.1L-5.9 8.1L-9.5 -3.1Z" stroke="#297EA6" fill="none" stroke-width="2"></path></g><g transform="translate(325 599)"><path d="M0 -12L11.4 -3.7L7.1 9.7L-7.1 9.7L-11.4 -3.7Z" stroke="#297EA6" fill="none" stroke-width="2"></path></g><g transform="translate(568 64)"><path d="M0 -7L6.7 -2.2L4.1 5.7L-4.1 5.7L-6.7 -2.2Z" stroke="#297EA6" fill="none" stroke-width="2"></path></g><g transform="translate(255 308)"><path d="M0 -9L8.6 -2.8L5.3 7.3L-5.3 7.3L-8.6 -2.8Z" stroke="#297EA6" fill="none" stroke-width="2"></path></g><g transform="translate(157 495)"><path d="M0 -7L6.7 -2.2L4.1 5.7L-4.1 5.7L-6.7 -2.2Z" stroke="#297EA6" fill="none" stroke-width="2"></path></g><g transform="translate(479 465)"><path d="M0 -12L11.4 -3.7L7.1 9.7L-7.1 9.7L-11.4 -3.7Z" stroke="#297EA6" fill="none" stroke-width="2"></path></g><g transform="translate(247 400)"><path d="M0 -9L8.6 -2.8L5.3 7.3L-5.3 7.3L-8.6 -2.8Z" stroke="#297EA6" fill="none" stroke-width="2"></path></g><g transform="translate(2 377)"><path d="M0 -10L9.5 -3.1L5.9 8.1L-5.9 8.1L-9.5 -3.1Z" stroke="#297EA6" fill="none" stroke-width="2"></path></g><g transform="translate(443 555)"><path d="M0 -10L9.5 -3.1L5.9 8.1L-5.9 8.1L-9.5 -3.1Z" stroke="#297EA6" fill="none" stroke-width="2"></path></g><g transform="translate(20 200)"><path d="M0 -6L5.7 -1.9L3.5 4.9L-3.5 4.9L-5.7 -1.9Z" stroke="#297EA6" fill="none" stroke-width="2"></path></g><g transform="translate(493 261)"><path d="M0 -8L7.6 -2.5L4.7 6.5L-4.7 6.5L-7.6 -2.5Z" stroke="#297EA6" fill="none" stroke-width="2"></path></g><g transform="translate(80 4)"><path d="M0 -7L6.7 -2.2L4.1 5.7L-4.1 5.7L-6.7 -2.2Z" stroke="#297EA6" fill="none" stroke-width="2"></path></g><g transform="translate(898 220)"><path d="M0 -10L9.5 -3.1L5.9 8.1L-5.9 8.1L-9.5 -3.1Z" stroke="#297EA6" fill="none" stroke-width="2"></path></g><g transform="translate(526 562)"><path d="M0 -10L9.5 -3.1L5.9 8.1L-5.9 8.1L-9.5 -3.1Z" stroke="#297EA6" fill="none" stroke-width="2"></path></g><g transform="translate(418 83)"><path d="M0 -6L5.7 -1.9L3.5 4.9L-3.5 4.9L-5.7 -1.9Z" stroke="#297EA6" fill="none" stroke-width="2"></path></g><g transform="translate(603 577)"><path d="M0 -10L9.5 -3.1L5.9 8.1L-5.9 8.1L-9.5 -3.1Z" stroke="#297EA6" fill="none" stroke-width="2"></path></g><g transform="translate(897 99)"><path d="M0 -8L7.6 -2.5L4.7 6.5L-4.7 6.5L-7.6 -2.5Z" stroke="#297EA6" fill="none" stroke-width="2"></path></g><g transform="translate(648 128)"><path d="M0 -7L6.7 -2.2L4.1 5.7L-4.1 5.7L-6.7 -2.2Z" stroke="#297EA6" fill="none" stroke-width="2"></path></g><g transform="translate(706 471)"><path d="M0 -12L11.4 -3.7L7.1 9.7L-7.1 9.7L-11.4 -3.7Z" stroke="#297EA6" fill="none" stroke-width="2"></path></g><g transform="translate(761 144)"><path d="M0 -9L8.6 -2.8L5.3 7.3L-5.3 7.3L-8.6 -2.8Z" stroke="#297EA6" fill="none" stroke-width="2"></path></g><g transform="translate(177 143)"><path d="M0 -7L6.7 -2.2L4.1 5.7L-4.1 5.7L-6.7 -2.2Z" stroke="#297EA6" fill="none" stroke-width="2"></path></g><g transform="translate(542 539)"><path d="M0 -12L11.4 -3.7L7.1 9.7L-7.1 9.7L-11.4 -3.7Z" stroke="#297EA6" fill="none" stroke-width="2"></path></g><g transform="translate(410 385)"><path d="M0 -6L5.7 -1.9L3.5 4.9L-3.5 4.9L-5.7 -1.9Z" stroke="#297EA6" fill="none" stroke-width="2"></path></g><g transform="translate(684 325)"><path d="M0 -7L6.7 -2.2L4.1 5.7L-4.1 5.7L-6.7 -2.2Z" stroke="#297EA6" fill="none" stroke-width="2"></path></g></g></svg>